G04*
G04 #@! TF.GenerationSoftware,Altium Limited,Altium Designer,21.0.8 (223)*
G04*
G04 Layer_Color=2752767*
%FSTAX24Y24*%
%MOIN*%
G70*
G04*
G04 #@! TF.SameCoordinates,D6642B81-7170-4B7A-B2B3-623539A33ABF*
G04*
G04*
G04 #@! TF.FilePolarity,Positive*
G04*
G01*
G75*
%ADD71C,0.0020*%
%ADD72C,0.0027*%
%ADD73C,0.0013*%
D71*
X032277Y035501D02*
Y035661D01*
X032437D01*
Y035501D01*
X032277D01*
X038277D02*
Y035661D01*
X038437D01*
Y035501D01*
X038277D01*
X037277D02*
Y035661D01*
X037437D01*
Y035501D01*
X037277D01*
X036277D02*
Y035661D01*
X036437D01*
Y035501D01*
X036277D01*
X035277D02*
Y035661D01*
X035437D01*
Y035501D01*
X035277D01*
X033277D02*
Y035661D01*
X033437D01*
Y035501D01*
X033277D01*
X034277D02*
Y035661D01*
X034437D01*
Y035501D01*
X034277D01*
X027089Y045579D02*
X027009Y045739D01*
X027169D01*
X027089Y045579D01*
X026039D02*
X025959Y045739D01*
X026119D01*
X026039Y045579D01*
X025039D02*
X024959Y045739D01*
X025119D01*
X025039Y045579D01*
X019979Y04865D02*
X020019Y04869D01*
X020059D01*
X020019Y04873D01*
X020059Y04877D01*
X020019D01*
X019979Y04881D01*
X019939Y04877D01*
X019899D01*
X019939Y04873D01*
X019899Y04869D01*
X019939D01*
X019979Y04865D01*
X020979D02*
X021019Y04869D01*
X021059D01*
X021019Y04873D01*
X021059Y04877D01*
X021019D01*
X020979Y04881D01*
X020939Y04877D01*
X020899D01*
X020939Y04873D01*
X020899Y04869D01*
X020939D01*
X020979Y04865D01*
X022979D02*
X023019Y04869D01*
X023059D01*
X023019Y04873D01*
X023059Y04877D01*
X023019D01*
X022979Y04881D01*
X022939Y04877D01*
X022899D01*
X022939Y04873D01*
X022899Y04869D01*
X022939D01*
X022979Y04865D01*
X023979D02*
X024019Y04869D01*
X024059D01*
X024019Y04873D01*
X024059Y04877D01*
X024019D01*
X023979Y04881D01*
X023939Y04877D01*
X023899D01*
X023939Y04873D01*
X023899Y04869D01*
X023939D01*
X023979Y04865D01*
X024979D02*
X025019Y04869D01*
X025059D01*
X025019Y04873D01*
X025059Y04877D01*
X025019D01*
X024979Y04881D01*
X024939Y04877D01*
X024899D01*
X024939Y04873D01*
X024899Y04869D01*
X024939D01*
X024979Y04865D01*
X025979D02*
X026019Y04869D01*
X026059D01*
X026019Y04873D01*
X026059Y04877D01*
X026019D01*
X025979Y04881D01*
X025939Y04877D01*
X025899D01*
X025939Y04873D01*
X025899Y04869D01*
X025939D01*
X025979Y04865D01*
X026979D02*
X027019Y04869D01*
X027059D01*
X027019Y04873D01*
X027059Y04877D01*
X027019D01*
X026979Y04881D01*
X026939Y04877D01*
X026899D01*
X026939Y04873D01*
X026899Y04869D01*
X026939D01*
X026979Y04865D01*
X027979D02*
X028019Y04869D01*
X028059D01*
X028019Y04873D01*
X028059Y04877D01*
X028019D01*
X027979Y04881D01*
X027939Y04877D01*
X027899D01*
X027939Y04873D01*
X027899Y04869D01*
X027939D01*
X027979Y04865D01*
X028979D02*
X029019Y04869D01*
X029059D01*
X029019Y04873D01*
X029059Y04877D01*
X029019D01*
X028979Y04881D01*
X028939Y04877D01*
X028899D01*
X028939Y04873D01*
X028899Y04869D01*
X028939D01*
X028979Y04865D01*
X021979D02*
X022019Y04869D01*
X022059D01*
X022019Y04873D01*
X022059Y04877D01*
X022019D01*
X021979Y04881D01*
X021939Y04877D01*
X021899D01*
X021939Y04873D01*
X021899Y04869D01*
X021939D01*
X021979Y04865D01*
X018979D02*
X019019Y04869D01*
X019059D01*
X019019Y04873D01*
X019059Y04877D01*
X019019D01*
X018979Y04881D01*
X018939Y04877D01*
X018899D01*
X018939Y04873D01*
X018899Y04869D01*
X018939D01*
X018979Y04865D01*
X017979D02*
X018019Y04869D01*
X018059D01*
X018019Y04873D01*
X018059Y04877D01*
X018019D01*
X017979Y04881D01*
X017939Y04877D01*
X017899D01*
X017939Y04873D01*
X017899Y04869D01*
X017939D01*
X017979Y04865D01*
X016979D02*
X017019Y04869D01*
X017059D01*
X017019Y04873D01*
X017059Y04877D01*
X017019D01*
X016979Y04881D01*
X016939Y04877D01*
X016899D01*
X016939Y04873D01*
X016899Y04869D01*
X016939D01*
X016979Y04865D01*
X015979D02*
X016019Y04869D01*
X016059D01*
X016019Y04873D01*
X016059Y04877D01*
X016019D01*
X015979Y04881D01*
X015939Y04877D01*
X015899D01*
X015939Y04873D01*
X015899Y04869D01*
X015939D01*
X015979Y04865D01*
X014979D02*
X015019Y04869D01*
X015059D01*
X015019Y04873D01*
X015059Y04877D01*
X015019D01*
X014979Y04881D01*
X014939Y04877D01*
X014899D01*
X014939Y04873D01*
X014899Y04869D01*
X014939D01*
X014979Y04865D01*
X015029Y04265D02*
X015069Y04269D01*
X015109D01*
X015069Y04273D01*
X015109Y04277D01*
X015069D01*
X015029Y04281D01*
X014989Y04277D01*
X014949D01*
X014989Y04273D01*
X014949Y04269D01*
X014989D01*
X015029Y04265D01*
X016029D02*
X016069Y04269D01*
X016109D01*
X016069Y04273D01*
X016109Y04277D01*
X016069D01*
X016029Y04281D01*
X015989Y04277D01*
X015949D01*
X015989Y04273D01*
X015949Y04269D01*
X015989D01*
X016029Y04265D01*
X017029D02*
X017069Y04269D01*
X017109D01*
X017069Y04273D01*
X017109Y04277D01*
X017069D01*
X017029Y04281D01*
X016989Y04277D01*
X016949D01*
X016989Y04273D01*
X016949Y04269D01*
X016989D01*
X017029Y04265D01*
X018029D02*
X018069Y04269D01*
X018109D01*
X018069Y04273D01*
X018109Y04277D01*
X018069D01*
X018029Y04281D01*
X017989Y04277D01*
X017949D01*
X017989Y04273D01*
X017949Y04269D01*
X017989D01*
X018029Y04265D01*
X019029D02*
X019069Y04269D01*
X019109D01*
X019069Y04273D01*
X019109Y04277D01*
X019069D01*
X019029Y04281D01*
X018989Y04277D01*
X018949D01*
X018989Y04273D01*
X018949Y04269D01*
X018989D01*
X019029Y04265D01*
X022029D02*
X022069Y04269D01*
X022109D01*
X022069Y04273D01*
X022109Y04277D01*
X022069D01*
X022029Y04281D01*
X021989Y04277D01*
X021949D01*
X021989Y04273D01*
X021949Y04269D01*
X021989D01*
X022029Y04265D01*
X029029D02*
X029069Y04269D01*
X029109D01*
X029069Y04273D01*
X029109Y04277D01*
X029069D01*
X029029Y04281D01*
X028989Y04277D01*
X028949D01*
X028989Y04273D01*
X028949Y04269D01*
X028989D01*
X029029Y04265D01*
X028029D02*
X028069Y04269D01*
X028109D01*
X028069Y04273D01*
X028109Y04277D01*
X028069D01*
X028029Y04281D01*
X027989Y04277D01*
X027949D01*
X027989Y04273D01*
X027949Y04269D01*
X027989D01*
X028029Y04265D01*
X027029D02*
X027069Y04269D01*
X027109D01*
X027069Y04273D01*
X027109Y04277D01*
X027069D01*
X027029Y04281D01*
X026989Y04277D01*
X026949D01*
X026989Y04273D01*
X026949Y04269D01*
X026989D01*
X027029Y04265D01*
X026029D02*
X026069Y04269D01*
X026109D01*
X026069Y04273D01*
X026109Y04277D01*
X026069D01*
X026029Y04281D01*
X025989Y04277D01*
X025949D01*
X025989Y04273D01*
X025949Y04269D01*
X025989D01*
X026029Y04265D01*
X025029D02*
X025069Y04269D01*
X025109D01*
X025069Y04273D01*
X025109Y04277D01*
X025069D01*
X025029Y04281D01*
X024989Y04277D01*
X024949D01*
X024989Y04273D01*
X024949Y04269D01*
X024989D01*
X025029Y04265D01*
X024029D02*
X024069Y04269D01*
X024109D01*
X024069Y04273D01*
X024109Y04277D01*
X024069D01*
X024029Y04281D01*
X023989Y04277D01*
X023949D01*
X023989Y04273D01*
X023949Y04269D01*
X023989D01*
X024029Y04265D01*
X023029D02*
X023069Y04269D01*
X023109D01*
X023069Y04273D01*
X023109Y04277D01*
X023069D01*
X023029Y04281D01*
X022989Y04277D01*
X022949D01*
X022989Y04273D01*
X022949Y04269D01*
X022989D01*
X023029Y04265D01*
X021029D02*
X021069Y04269D01*
X021109D01*
X021069Y04273D01*
X021109Y04277D01*
X021069D01*
X021029Y04281D01*
X020989Y04277D01*
X020949D01*
X020989Y04273D01*
X020949Y04269D01*
X020989D01*
X021029Y04265D01*
X020029D02*
X020069Y04269D01*
X020109D01*
X020069Y04273D01*
X020109Y04277D01*
X020069D01*
X020029Y04281D01*
X019989Y04277D01*
X019949D01*
X019989Y04273D01*
X019949Y04269D01*
X019989D01*
X020029Y04265D01*
X033269Y030737D02*
X033309Y030817D01*
X033269Y030897D01*
X033349Y030857D01*
X033429Y030897D01*
X033389Y030817D01*
X033429Y030737D01*
X033349Y030777D01*
X033269Y030737D01*
X032269D02*
X032309Y030817D01*
X032269Y030897D01*
X032349Y030857D01*
X032429Y030897D01*
X032389Y030817D01*
X032429Y030737D01*
X032349Y030777D01*
X032269Y030737D01*
Y033737D02*
X032309Y033817D01*
X032269Y033897D01*
X032349Y033857D01*
X032429Y033897D01*
X032389Y033817D01*
X032429Y033737D01*
X032349Y033777D01*
X032269Y033737D01*
X033269D02*
X033309Y033817D01*
X033269Y033897D01*
X033349Y033857D01*
X033429Y033897D01*
X033389Y033817D01*
X033429Y033737D01*
X033349Y033777D01*
X033269Y033737D01*
X02501Y041407D02*
Y041367D01*
X02509D01*
Y041407D01*
X02513D01*
Y041487D01*
X02509D01*
Y041527D01*
X02501D01*
Y041487D01*
X02497D01*
Y041407D01*
X02501D01*
X02701D02*
Y041367D01*
X02709D01*
Y041407D01*
X02713D01*
Y041487D01*
X02709D01*
Y041527D01*
X02701D01*
Y041487D01*
X02697D01*
Y041407D01*
X02701D01*
X025828Y03365D02*
X025868D01*
X025908Y03369D01*
X025948Y03365D01*
X025988D01*
Y03369D01*
X025948Y03373D01*
X025988Y03377D01*
Y03381D01*
X025948D01*
X025908Y03377D01*
X025868Y03381D01*
X025828D01*
Y03377D01*
X025868Y03373D01*
X025828Y03369D01*
Y03365D01*
X026828Y03143D02*
X026908Y03151D01*
X026988Y03143D01*
X026908Y03135D01*
X026828Y03143D01*
X025828D02*
X025908Y03151D01*
X025988Y03143D01*
X025908Y03135D01*
X025828Y03143D01*
X024828D02*
X024908Y03151D01*
X024988Y03143D01*
X024908Y03135D01*
X024828Y03143D01*
X018746Y031414D02*
Y031574D01*
X018906D01*
Y031414D01*
X018746D01*
X018786Y031454D02*
Y031534D01*
X018866D01*
Y031454D01*
X018786D01*
X017246Y033414D02*
Y033574D01*
X017406D01*
Y033414D01*
X017246D01*
X017286Y033454D02*
Y033534D01*
X017366D01*
Y033454D01*
X017286D01*
X019746Y033414D02*
Y033574D01*
X019906D01*
Y033414D01*
X019746D01*
X019786Y033454D02*
Y033534D01*
X019866D01*
Y033454D01*
X019786D01*
X021223Y041328D02*
Y041288D01*
X021303D01*
Y041328D01*
X021343D01*
Y041408D01*
X021303D01*
Y041448D01*
X021223D01*
Y041408D01*
X021183D01*
Y041328D01*
X021223D01*
X019223D02*
Y041288D01*
X019303D01*
Y041328D01*
X019343D01*
Y041408D01*
X019303D01*
Y041448D01*
X019223D01*
Y041408D01*
X019183D01*
Y041328D01*
X019223D01*
X017822Y045973D02*
X017742Y046133D01*
X017902D01*
X017822Y045973D01*
X018822D02*
X018742Y046133D01*
X018902D01*
X018822Y045973D01*
X019822D02*
X019742Y046133D01*
X019902D01*
X019822Y045973D01*
X020822D02*
X020742Y046133D01*
X020902D01*
X020822Y045973D01*
X039215Y030579D02*
X039135Y030739D01*
X039295D01*
X039215Y030579D01*
Y030619D02*
X039175Y030699D01*
X039255D01*
X039215Y030619D01*
X014806Y03054D02*
X014726Y0307D01*
X014886D01*
X014806Y03054D01*
Y03058D02*
X014766Y03066D01*
X014846D01*
X014806Y03058D01*
X039097Y048887D02*
X039017Y049047D01*
X039177D01*
X039097Y048887D01*
Y048927D02*
X039057Y049007D01*
X039137D01*
X039097Y048927D01*
X015121Y046839D02*
X015041Y046999D01*
X015201D01*
X015121Y046839D01*
Y046879D02*
X015081Y046959D01*
X015161D01*
X015121Y046879D01*
X034373Y041367D02*
X034413Y041407D01*
X034453D01*
X034413Y041447D01*
X034453Y041487D01*
X034413D01*
X034373Y041527D01*
X034333Y041487D01*
X034293D01*
X034333Y041447D01*
X034293Y041407D01*
X034333D01*
X034373Y041367D01*
Y041407D02*
X034393Y041427D01*
X034413D01*
X034393Y041447D01*
X034413Y041467D01*
X034393D01*
X034373Y041487D01*
X034353Y041467D01*
X034333D01*
X034353Y041447D01*
X034333Y041427D01*
X034353D01*
X034373Y041407D01*
D72*
X036028Y048061D02*
G03*
X036028Y048061I-00008J0D01*
G01*
X037028D02*
G03*
X037028Y048061I-00008J0D01*
G01*
X015516Y036486D02*
G03*
X015516Y036486I-00008J0D01*
G01*
Y037667D02*
G03*
X015516Y037667I-00008J0D01*
G01*
Y038848D02*
G03*
X015516Y038848I-00008J0D01*
G01*
Y04003D02*
G03*
X015516Y04003I-00008J0D01*
G01*
Y041211D02*
G03*
X015516Y041211I-00008J0D01*
G01*
D73*
X015476Y036486D02*
G03*
X015476Y036486I-00004J0D01*
G01*
Y037667D02*
G03*
X015476Y037667I-00004J0D01*
G01*
Y038848D02*
G03*
X015476Y038848I-00004J0D01*
G01*
Y04003D02*
G03*
X015476Y04003I-00004J0D01*
G01*
Y041211D02*
G03*
X015476Y041211I-00004J0D01*
G01*
M02*
