G04*
G04 #@! TF.GenerationSoftware,Altium Limited,Altium Designer,21.0.8 (223)*
G04*
G04 Layer_Color=16711935*
%FSTAX24Y24*%
%MOIN*%
G70*
G04*
G04 #@! TF.SameCoordinates,D6642B81-7170-4B7A-B2B3-623539A33ABF*
G04*
G04*
G04 #@! TF.FilePolarity,Negative*
G04*
G01*
G75*
%ADD28O,0.0780X0.0980*%
%ADD31R,0.0630X0.0474*%
%ADD35R,0.0780X0.0780*%
%ADD36C,0.0780*%
%ADD37R,0.0830X0.0980*%
%ADD38O,0.0830X0.0980*%
%ADD39C,0.0678*%
%ADD40R,0.0678X0.0678*%
%ADD41C,0.0671*%
%ADD42R,0.0671X0.0671*%
%ADD43C,0.1580*%
%ADD44O,0.0880X0.1080*%
%ADD45R,0.0880X0.1080*%
%ADD46R,0.1680X0.1080*%
%ADD47R,0.1080X0.1680*%
%ADD48O,0.1458X0.0867*%
%ADD49C,0.1655*%
%ADD50C,0.0580*%
D28*
X035948Y048061D02*
D03*
X036948D02*
D03*
D31*
X032365Y037684D02*
D03*
Y036784D02*
D03*
X033349Y037684D02*
D03*
Y036784D02*
D03*
D35*
X032357Y035581D02*
D03*
D36*
X038357D02*
D03*
X037357D02*
D03*
X036357D02*
D03*
X035357D02*
D03*
X033357D02*
D03*
X034357D02*
D03*
X02505Y041447D02*
D03*
X02705D02*
D03*
X021263Y041368D02*
D03*
X019263D02*
D03*
D37*
X027089Y045659D02*
D03*
X017822Y046053D02*
D03*
D38*
X026039Y045659D02*
D03*
X025039D02*
D03*
X018822Y046053D02*
D03*
X019822D02*
D03*
X020822D02*
D03*
D39*
X019979Y04873D02*
D03*
X020979D02*
D03*
X022979D02*
D03*
X023979D02*
D03*
X024979D02*
D03*
X025979D02*
D03*
X026979D02*
D03*
X027979D02*
D03*
X028979D02*
D03*
X021979D02*
D03*
X018979D02*
D03*
X017979D02*
D03*
X016979D02*
D03*
X015979D02*
D03*
X014979D02*
D03*
X016029Y04273D02*
D03*
X017029D02*
D03*
X018029D02*
D03*
X019029D02*
D03*
X022029D02*
D03*
X029029D02*
D03*
X028029D02*
D03*
X027029D02*
D03*
X026029D02*
D03*
X025029D02*
D03*
X024029D02*
D03*
X023029D02*
D03*
X021029D02*
D03*
X020029D02*
D03*
D40*
X015029D02*
D03*
D41*
X033349Y030817D02*
D03*
X032349Y033817D02*
D03*
X033349D02*
D03*
D42*
X032349Y030817D02*
D03*
D43*
X025908Y03373D02*
D03*
D44*
X026908Y03143D02*
D03*
X025908D02*
D03*
D45*
X024908D02*
D03*
D46*
X018826Y031494D02*
D03*
D47*
X017326Y033494D02*
D03*
X019826D02*
D03*
D48*
X015436Y036486D02*
D03*
Y037667D02*
D03*
Y038848D02*
D03*
Y04003D02*
D03*
Y041211D02*
D03*
D49*
X039215Y030659D02*
D03*
X014806Y03062D02*
D03*
X039097Y048967D02*
D03*
X015121Y046919D02*
D03*
D50*
X034373Y041447D02*
D03*
M02*
