G04*
G04 #@! TF.GenerationSoftware,Altium Limited,Altium Designer,21.0.8 (223)*
G04*
G04 Layer_Color=32896*
%FSTAX24Y24*%
%MOIN*%
G70*
G04*
G04 #@! TF.SameCoordinates,D6642B81-7170-4B7A-B2B3-623539A33ABF*
G04*
G04*
G04 #@! TF.FilePolarity,Positive*
G04*
G01*
G75*
%ADD11C,0.0050*%
%ADD12C,0.0070*%
%ADD13C,0.0100*%
%ADD14C,0.0040*%
G36*
X017467Y047548D02*
X018177D01*
X017827Y047198D01*
Y047188D01*
X017467Y047548D01*
D02*
G37*
G36*
X027394Y044164D02*
X026684D01*
X027034Y044514D01*
Y044524D01*
X027394Y044164D01*
D02*
G37*
D11*
X032025Y036534D02*
Y037934D01*
X032695D01*
Y036534D02*
Y037934D01*
X032025Y036534D02*
X032695D01*
X033009D02*
Y037934D01*
X033679D01*
Y036534D02*
Y037934D01*
X033009Y036534D02*
X033679D01*
X023782Y045805D02*
X023816Y045838D01*
X023882D01*
X023916Y045805D01*
Y045672D01*
X023882Y045638D01*
X023816D01*
X023782Y045672D01*
X023716Y045838D02*
Y045638D01*
X023616D01*
X023582Y045672D01*
Y045705D01*
X023616Y045738D01*
X023716D01*
X023616D01*
X023582Y045772D01*
Y045805D01*
X023616Y045838D01*
X023716D01*
X023316D02*
Y045638D01*
X023216D01*
X023183Y045672D01*
Y045805D01*
X023216Y045838D01*
X023316D01*
X023116Y045638D02*
Y045772D01*
X023049Y045838D01*
X022983Y045772D01*
Y045638D01*
Y045738D01*
X023116D01*
X022916Y045838D02*
X022783D01*
X022849D01*
Y045638D01*
X031906Y037134D02*
X03184D01*
X031873D01*
Y037334D01*
X031906Y037301D01*
X03174D02*
X031706Y037334D01*
X03164D01*
X031606Y037301D01*
Y037168D01*
X03164Y037134D01*
X031706D01*
X03174Y037168D01*
Y037301D01*
X03154Y037334D02*
Y037134D01*
Y037201D01*
X031406Y037334D01*
X031506Y037234D01*
X031406Y037134D01*
X034308Y037174D02*
X034241D01*
X034274D01*
Y037374D01*
X034308Y03734D01*
X034141D02*
X034108Y037374D01*
X034041D01*
X034008Y03734D01*
Y037207D01*
X034041Y037174D01*
X034108D01*
X034141Y037207D01*
Y03734D01*
X033941Y037374D02*
Y037174D01*
Y03724D01*
X033808Y037374D01*
X033908Y037274D01*
X033808Y037174D01*
X037822Y040681D02*
Y040481D01*
X037722D01*
X037689Y040514D01*
Y040647D01*
X037722Y040681D01*
X037822D01*
X037623D02*
Y040481D01*
Y040581D01*
X037489D01*
Y040681D01*
Y040481D01*
X037423Y040681D02*
X037289D01*
X037356D01*
Y040481D01*
X037223D02*
X037156D01*
X037189D01*
Y040681D01*
X037223Y040647D01*
X037056Y040481D02*
X036989D01*
X037023D01*
Y040681D01*
X037056Y040647D01*
X036889Y040481D02*
X036756Y040614D01*
X036556Y040481D02*
X03669D01*
X036556Y040614D01*
Y040647D01*
X03659Y040681D01*
X036656D01*
X03669Y040647D01*
X036356Y040481D02*
X03649D01*
X036356Y040614D01*
Y040647D01*
X03639Y040681D01*
X036456D01*
X03649Y040647D01*
X016544Y045844D02*
X016578Y045878D01*
X016644D01*
X016678Y045844D01*
Y045711D01*
X016644Y045678D01*
X016578D01*
X016544Y045711D01*
X016478Y045878D02*
Y045678D01*
X016378D01*
X016344Y045711D01*
Y045744D01*
X016378Y045778D01*
X016478D01*
X016378D01*
X016344Y045811D01*
Y045844D01*
X016378Y045878D01*
X016478D01*
X016078D02*
Y045678D01*
X015978D01*
X015945Y045711D01*
Y045744D01*
X015978Y045778D01*
X016078D01*
X015978D01*
X015945Y045811D01*
Y045844D01*
X015978Y045878D01*
X016078D01*
X015878D02*
Y045711D01*
X015845Y045678D01*
X015778D01*
X015745Y045711D01*
Y045878D01*
X015678D02*
X015611D01*
X015645D01*
Y045678D01*
X015678D01*
X015611D01*
D12*
X024039Y047059D02*
X028039D01*
X024039Y044659D02*
Y045659D01*
Y044659D02*
X028039D01*
Y047059D01*
X024039Y045659D02*
Y047059D01*
X027319Y044669D02*
Y044969D01*
X026819D02*
X027319D01*
X026819Y044669D02*
Y044969D01*
X025329Y044659D02*
Y044959D01*
X024829D02*
X025329D01*
X024829Y044659D02*
Y044959D01*
X020822Y046733D02*
Y047033D01*
X020322Y046733D02*
X020822D01*
X020322D02*
Y047033D01*
X018342Y046753D02*
Y047053D01*
X017842Y046753D02*
X018342D01*
X017842D02*
Y047053D01*
X016822Y044653D02*
X021822D01*
Y046053D02*
Y047053D01*
X016822D02*
X021822D01*
X016822Y044653D02*
Y047053D01*
X021822Y044653D02*
Y046053D01*
D13*
X033008Y047111D02*
X037868D01*
Y040811D02*
Y047111D01*
X033008Y040811D02*
X037868D01*
X033008D02*
Y047111D01*
X031454Y034409D02*
X034259D01*
Y030197D02*
Y034409D01*
X031454Y030197D02*
X034259D01*
X031454D02*
Y034409D01*
D14*
X032615Y037064D02*
Y037404D01*
X032115Y037064D02*
Y037404D01*
X033599Y037064D02*
Y037404D01*
X033099Y037064D02*
Y037404D01*
M02*
