M48
;Layer_Color=9474304
;FILE_FORMAT=2:4
INCH,LZ
;TYPE=PLATED
T1F00S00C0.0280
T2F00S00C0.0310
T3F00S00C0.0340
T4F00S00C0.0354
T5F00S00C0.0390
T6F00S00C0.0400
T7F00S00C0.0402
T9F00S00C0.0591
T10F00S00C0.0700
T11F00S00C0.1181
;TYPE=NON_PLATED
T12F00S00C0.0394
%
T01
X034373Y041447
T02
X019263Y041368
X021263
X02505Y041447
X02705
T03
X017822Y046053
X018822
X019822
X020822
X025039Y045659
X026039
X027089
T04
X032349Y030817
X033349
Y033817
X032349
T05
X024908Y03143
X025908
X026908
T06
X032357Y035581
X033357
X034357
X035357
X036357
X037357
X038357
T07
X015029Y04273
X016029
X017029
X018029
X019029
X020029
X021029
X022029
X023029
X024029
X025029
X026029
X027029
X028029
X029029
X028979Y04873
X027979
X026979
X025979
X024979
X023979
X022979
X021979
X020979
X019979
X018979
X017979
X016979
X015979
X014979
T09
X015436Y036486
Y037667
Y038848
Y04003
Y041211
T10
X025908Y03373
T11
X039215Y030659
X014806Y03062
X039097Y048967
X015121Y046919
T12
X035948Y048061
X036948
M30
