G04*
G04 #@! TF.GenerationSoftware,Altium Limited,Altium Designer,21.0.8 (223)*
G04*
G04 Layer_Color=128*
%FSTAX24Y24*%
%MOIN*%
G70*
G04*
G04 #@! TF.SameCoordinates,D6642B81-7170-4B7A-B2B3-623539A33ABF*
G04*
G04*
G04 #@! TF.FilePolarity,Positive*
G04*
G01*
G75*
%ADD71C,0.0020*%
D71*
X032157Y035581D02*
X032557D01*
X032357Y035381D02*
Y035781D01*
X038157Y035581D02*
X038557D01*
X038357Y035381D02*
Y035781D01*
X037157Y035581D02*
X037557D01*
X037357Y035381D02*
Y035781D01*
X036157Y035581D02*
X036557D01*
X036357Y035381D02*
Y035781D01*
X035157Y035581D02*
X035557D01*
X035357Y035381D02*
Y035781D01*
X033157Y035581D02*
X033557D01*
X033357Y035381D02*
Y035781D01*
X034157Y035581D02*
X034557D01*
X034357Y035381D02*
Y035781D01*
X035751Y048061D02*
X036144D01*
X035948Y047864D02*
Y048258D01*
X036751Y048061D02*
X037144D01*
X036948Y047864D02*
Y048258D01*
X026919Y045659D02*
X027259D01*
X027089Y045489D02*
Y045829D01*
X025869Y045659D02*
X026209D01*
X026039Y045489D02*
Y045829D01*
X024869Y045659D02*
X025209D01*
X025039Y045489D02*
Y045829D01*
X019778Y04873D02*
X02018D01*
X019979Y04853D02*
Y048931D01*
X020778Y04873D02*
X02118D01*
X020979Y04853D02*
Y048931D01*
X022778Y04873D02*
X02318D01*
X022979Y04853D02*
Y048931D01*
X023778Y04873D02*
X02418D01*
X023979Y04853D02*
Y048931D01*
X024778Y04873D02*
X02518D01*
X024979Y04853D02*
Y048931D01*
X025778Y04873D02*
X02618D01*
X025979Y04853D02*
Y048931D01*
X026778Y04873D02*
X02718D01*
X026979Y04853D02*
Y048931D01*
X027778Y04873D02*
X02818D01*
X027979Y04853D02*
Y048931D01*
X028778Y04873D02*
X02918D01*
X028979Y04853D02*
Y048931D01*
X021778Y04873D02*
X02218D01*
X021979Y04853D02*
Y048931D01*
X018778Y04873D02*
X01918D01*
X018979Y04853D02*
Y048931D01*
X017778Y04873D02*
X01818D01*
X017979Y04853D02*
Y048931D01*
X016778Y04873D02*
X01718D01*
X016979Y04853D02*
Y048931D01*
X015778Y04873D02*
X01618D01*
X015979Y04853D02*
Y048931D01*
X014778Y04873D02*
X01518D01*
X014979Y04853D02*
Y048931D01*
X014828Y04273D02*
X01523D01*
X015029Y04253D02*
Y042931D01*
X015828Y04273D02*
X01623D01*
X016029Y04253D02*
Y042931D01*
X016828Y04273D02*
X01723D01*
X017029Y04253D02*
Y042931D01*
X017828Y04273D02*
X01823D01*
X018029Y04253D02*
Y042931D01*
X018828Y04273D02*
X01923D01*
X019029Y04253D02*
Y042931D01*
X021828Y04273D02*
X02223D01*
X022029Y04253D02*
Y042931D01*
X028828Y04273D02*
X02923D01*
X029029Y04253D02*
Y042931D01*
X027828Y04273D02*
X02823D01*
X028029Y04253D02*
Y042931D01*
X026828Y04273D02*
X02723D01*
X027029Y04253D02*
Y042931D01*
X025828Y04273D02*
X02623D01*
X026029Y04253D02*
Y042931D01*
X024828Y04273D02*
X02523D01*
X025029Y04253D02*
Y042931D01*
X023828Y04273D02*
X02423D01*
X024029Y04253D02*
Y042931D01*
X022828Y04273D02*
X02323D01*
X023029Y04253D02*
Y042931D01*
X020828Y04273D02*
X02123D01*
X021029Y04253D02*
Y042931D01*
X019828Y04273D02*
X02023D01*
X020029Y04253D02*
Y042931D01*
X033172Y030817D02*
X033526D01*
X033349Y03064D02*
Y030994D01*
X032172Y030817D02*
X032526D01*
X032349Y03064D02*
Y030994D01*
X032172Y033817D02*
X032526D01*
X032349Y03364D02*
Y033994D01*
X033172Y033817D02*
X033526D01*
X033349Y03364D02*
Y033994D01*
X024895Y041447D02*
X025205D01*
X02505Y041292D02*
Y041602D01*
X026895Y041447D02*
X027205D01*
X02705Y041292D02*
Y041602D01*
X025558Y03373D02*
X026258D01*
X025908Y03338D02*
Y03408D01*
X026713Y03143D02*
X027103D01*
X026908Y031235D02*
Y031625D01*
X025713Y03143D02*
X026103D01*
X025908Y031235D02*
Y031625D01*
X024713Y03143D02*
X025103D01*
X024908Y031235D02*
Y031625D01*
X018576Y031494D02*
X019076D01*
X018826Y031244D02*
Y031744D01*
X017076Y033494D02*
X017576D01*
X017326Y033244D02*
Y033744D01*
X019576Y033494D02*
X020076D01*
X019826Y033244D02*
Y033744D01*
X015141Y036486D02*
X015731D01*
X015436Y036191D02*
Y036781D01*
X015141Y037667D02*
X015731D01*
X015436Y037372D02*
Y037963D01*
X015141Y038848D02*
X015731D01*
X015436Y038553D02*
Y039144D01*
X015141Y04003D02*
X015731D01*
X015436Y039734D02*
Y040325D01*
X015141Y041211D02*
X015731D01*
X015436Y040915D02*
Y041506D01*
X021108Y041368D02*
X021418D01*
X021263Y041213D02*
Y041523D01*
X019108Y041368D02*
X019418D01*
X019263Y041213D02*
Y041523D01*
X017652Y046053D02*
X017992D01*
X017822Y045883D02*
Y046223D01*
X018652Y046053D02*
X018992D01*
X018822Y045883D02*
Y046223D01*
X019652Y046053D02*
X019992D01*
X019822Y045883D02*
Y046223D01*
X020652Y046053D02*
X020992D01*
X020822Y045883D02*
Y046223D01*
X038625Y030659D02*
X039806D01*
X039215Y030069D02*
Y03125D01*
X014215Y03062D02*
X015396D01*
X014806Y03003D02*
Y031211D01*
X038507Y048967D02*
X039688D01*
X039097Y048376D02*
Y049557D01*
X01453Y046919D02*
X015711D01*
X015121Y046329D02*
Y04751D01*
X034233Y041447D02*
X034513D01*
X034373Y041307D02*
Y041587D01*
M02*
