G04*
G04 #@! TF.GenerationSoftware,Altium Limited,Altium Designer,21.0.8 (223)*
G04*
G04 Layer_Physical_Order=1*
G04 Layer_Color=255*
%FSTAX24Y24*%
%MOIN*%
G70*
G04*
G04 #@! TF.SameCoordinates,A57ED762-F1FC-47E5-BACA-E58B220B156E*
G04*
G04*
G04 #@! TF.FilePolarity,Positive*
G04*
G01*
G75*
%ADD12C,0.0100*%
%ADD37C,0.0400*%
%ADD38O,0.0800X0.1000*%
%ADD39C,0.0700*%
%ADD40C,0.1500*%
%ADD41R,0.0800X0.1000*%
%ADD42O,0.0669X0.0787*%
%ADD43C,0.1299*%
%ADD44C,0.0591*%
%ADD45R,0.0591X0.0591*%
%ADD46R,0.0700X0.0700*%
%ADD47R,0.1600X0.1000*%
%ADD48R,0.1000X0.1600*%
%ADD49O,0.1378X0.0787*%
%ADD50R,0.0787X0.0787*%
%ADD51C,0.0787*%
%ADD52O,0.1000X0.0650*%
%ADD53R,0.1000X0.0650*%
%ADD54O,0.0866X0.0669*%
%ADD55R,0.0866X0.0669*%
%ADD56C,0.0500*%
%ADD57C,0.0060*%
G36*
X047325Y049269D02*
X04733Y049219D01*
X047272Y049207D01*
X047118Y049143D01*
X046978Y04905D01*
X04686Y048932D01*
X046767Y048792D01*
X046703Y048638D01*
X04667Y048474D01*
Y048306D01*
X046703Y048142D01*
X046767Y047988D01*
X04686Y047848D01*
X046978Y04773D01*
X047118Y047637D01*
X047272Y047573D01*
X047436Y04754D01*
X047604D01*
X047768Y047573D01*
X047922Y047637D01*
X048062Y04773D01*
X04818Y047848D01*
X048258Y047965D01*
X048308Y047949D01*
X048316Y024148D01*
X048266Y024143D01*
X048257Y024188D01*
X048193Y024342D01*
X0481Y024482D01*
X047982Y0246D01*
X047842Y024693D01*
X047688Y024757D01*
X047524Y02479D01*
X047356D01*
X047192Y024757D01*
X047038Y024693D01*
X046898Y0246D01*
X04678Y024482D01*
X046687Y024342D01*
X046623Y024188D01*
X04659Y024024D01*
Y023856D01*
X046623Y023692D01*
X046687Y023538D01*
X04678Y023398D01*
X046898Y02328D01*
X047038Y023187D01*
X047192Y023123D01*
X047356Y02309D01*
X047524D01*
X047688Y023123D01*
X047842Y023187D01*
X047876Y023209D01*
X047909Y023171D01*
X047898Y023159D01*
X047739Y023074D01*
X047563Y023021D01*
X047393Y023004D01*
X047387Y023005D01*
X017014Y023088D01*
X017004Y023138D01*
X017122Y023187D01*
X017262Y02328D01*
X01738Y023398D01*
X017473Y023538D01*
X017537Y023692D01*
X01757Y023856D01*
Y024024D01*
X017537Y024188D01*
X017473Y024342D01*
X01738Y024482D01*
X017262Y0246D01*
X017122Y024693D01*
X016968Y024757D01*
X016804Y02479D01*
X016636D01*
X016472Y024757D01*
X016318Y024693D01*
X016178Y0246D01*
X01606Y024482D01*
X015967Y024342D01*
X015955Y024313D01*
X015906Y024323D01*
X015905Y030945D01*
X015953Y030959D01*
X015975Y030924D01*
X016085Y030794D01*
X016215Y030683D01*
X01636Y030594D01*
X016518Y030529D01*
X016683Y030489D01*
X016789Y030481D01*
X016805Y030479D01*
Y030479D01*
X016823Y030477D01*
X016823Y030477D01*
X016823Y030477D01*
X016834Y030477D01*
X016834Y030477D01*
X016855Y030477D01*
X017035D01*
Y029565D01*
X018025D01*
Y029844D01*
X018075Y029857D01*
X018134Y029756D01*
X018226Y029664D01*
X018339Y029598D01*
X018465Y029565D01*
X018595D01*
X018721Y029598D01*
X018834Y029664D01*
X018926Y029756D01*
X018992Y029869D01*
X019025Y029995D01*
Y030125D01*
X018992Y030251D01*
X018926Y030364D01*
X018864Y030427D01*
X018885Y030477D01*
X0206D01*
X020612Y030478D01*
X020775Y030462D01*
X020944Y030411D01*
X0211Y030328D01*
X021236Y030216D01*
X021348Y03008D01*
X021431Y029924D01*
X021482Y029755D01*
X021494Y029629D01*
X021497Y02958D01*
X021497Y02958D01*
X021497Y029578D01*
Y02788D01*
X02121D01*
Y02588D01*
X02261D01*
Y02788D01*
X022303D01*
Y029579D01*
X022304Y02958D01*
X022304D01*
X022289Y029802D01*
X022246Y030021D01*
X022174Y030232D01*
X022075Y030432D01*
X021952Y030617D01*
X021805Y030785D01*
X021637Y030932D01*
X021452Y031055D01*
X021252Y031154D01*
X021041Y031226D01*
X020822Y031269D01*
X0206Y031284D01*
Y031283D01*
X016841D01*
X016841Y031284D01*
Y031284D01*
X016841Y031284D01*
X016781Y031291D01*
X016713Y031319D01*
X016655Y031364D01*
X016611Y031422D01*
X016583Y031489D01*
X016578Y031526D01*
X016575Y031574D01*
X016575D01*
X016575Y031624D01*
X016575Y032137D01*
X016625Y032155D01*
X016716Y032048D01*
X016858Y031927D01*
X017017Y03183D01*
X017189Y031758D01*
X01737Y031715D01*
X01751Y031704D01*
X017556Y0317D01*
X017558Y0317D01*
X017608Y0317D01*
X021941D01*
X021954Y03165D01*
X02191Y031625D01*
X021837Y031552D01*
X021785Y031462D01*
X021758Y031362D01*
Y031258D01*
X021785Y031158D01*
X021837Y031068D01*
X02191Y030995D01*
X022Y030943D01*
X0221Y030916D01*
X022204D01*
X022304Y030943D01*
X022394Y030995D01*
X022467Y031068D01*
X022519Y031158D01*
X022546Y031258D01*
Y031362D01*
X022519Y031462D01*
X022467Y031552D01*
X022394Y031625D01*
X02235Y03165D01*
X022364Y0317D01*
X024314D01*
Y030716D01*
X025315D01*
X025336Y030671D01*
X025183Y0305D01*
X024987Y030224D01*
X024824Y029928D01*
X024694Y029616D01*
X024601Y029291D01*
X024544Y028958D01*
X024525Y02862D01*
X024525D01*
X024527Y02862D01*
X024527Y028618D01*
Y028104D01*
X02449Y028089D01*
X024381Y028004D01*
X024296Y027895D01*
X024244Y027767D01*
X024225Y02763D01*
X024244Y027493D01*
X024296Y027365D01*
X024381Y027256D01*
X02449Y027171D01*
X02453Y027155D01*
Y027105D01*
X02449Y027089D01*
X024381Y027004D01*
X024296Y026895D01*
X024244Y026767D01*
X024225Y02663D01*
X024244Y026493D01*
X024296Y026365D01*
X024381Y026256D01*
X024446Y026205D01*
X024429Y026155D01*
X02423D01*
Y025105D01*
X02563D01*
Y025245D01*
X025661Y025254D01*
X025823Y025341D01*
X025965Y025457D01*
X026081Y025599D01*
X026167Y02576D01*
X026221Y025936D01*
X026227Y026002D01*
X026227Y026002D01*
X026227D01*
X026227Y026003D01*
X026233Y026052D01*
X026233Y026052D01*
X026233Y026648D01*
Y02834D01*
X026232Y028352D01*
X026247Y028581D01*
X026294Y028819D01*
X026372Y029048D01*
X026479Y029264D01*
X026613Y029466D01*
X026773Y029647D01*
X026954Y029807D01*
X027156Y029941D01*
X027372Y030048D01*
X027601Y030126D01*
X027839Y030173D01*
X028068Y030188D01*
X02808Y030187D01*
X032523D01*
X032552Y030137D01*
X032497Y030042D01*
X03246Y029902D01*
Y029758D01*
X032497Y029618D01*
X03257Y029492D01*
X032672Y02939D01*
X032798Y029317D01*
X032938Y02928D01*
X033082D01*
X033222Y029317D01*
X033348Y02939D01*
X03345Y029492D01*
X033523Y029618D01*
X03356Y029758D01*
Y029902D01*
X033523Y030042D01*
X033468Y030137D01*
X033497Y030187D01*
X034238D01*
X03424Y030187D01*
X03424Y030186D01*
Y030186D01*
X03456Y030202D01*
X034877Y030249D01*
X035187Y030327D01*
X035489Y030435D01*
X035779Y030571D01*
X036053Y030736D01*
X036311Y030927D01*
X036548Y031142D01*
X036763Y031379D01*
X036954Y031637D01*
X037119Y031911D01*
X037255Y032201D01*
X037363Y032503D01*
X037441Y032813D01*
X037488Y03313D01*
X037504Y03345D01*
X037504Y03345D01*
X037503Y033451D01*
Y03353D01*
X037567Y033613D01*
X037575Y033633D01*
X037625D01*
X037633Y033613D01*
X037719Y033502D01*
X03783Y033416D01*
X03796Y033362D01*
X0381Y033344D01*
X03824Y033362D01*
X03837Y033416D01*
X038481Y033502D01*
X038567Y033613D01*
X038575Y033633D01*
X038625D01*
X038633Y033613D01*
X038719Y033502D01*
X03883Y033416D01*
X03896Y033362D01*
X0391Y033344D01*
X03924Y033362D01*
X03937Y033416D01*
X039481Y033502D01*
X039567Y033613D01*
X039575Y033633D01*
X039625D01*
X039633Y033613D01*
X039719Y033502D01*
X03983Y033416D01*
X03996Y033362D01*
X0401Y033344D01*
X04024Y033362D01*
X04037Y033416D01*
X040481Y033502D01*
X040567Y033613D01*
X040575Y033633D01*
X040625D01*
X040633Y033613D01*
X040719Y033502D01*
X04083Y033416D01*
X04096Y033362D01*
X0411Y033344D01*
X04124Y033362D01*
X04137Y033416D01*
X041481Y033502D01*
X041567Y033613D01*
X041575Y033633D01*
X041625D01*
X041633Y033613D01*
X041719Y033502D01*
X04183Y033416D01*
X04196Y033362D01*
X0421Y033344D01*
X04224Y033362D01*
X04237Y033416D01*
X042481Y033502D01*
X042567Y033613D01*
X042621Y033743D01*
X042639Y033883D01*
Y034001D01*
X042621Y034141D01*
X042567Y034271D01*
X042481Y034382D01*
X04237Y034468D01*
X04224Y034522D01*
X0421Y03454D01*
X04196Y034522D01*
X04183Y034468D01*
X041719Y034382D01*
X041633Y034271D01*
X041625Y034251D01*
X041575D01*
X041567Y034271D01*
X041481Y034382D01*
X04137Y034468D01*
X04124Y034522D01*
X0411Y03454D01*
X04096Y034522D01*
X04083Y034468D01*
X040719Y034382D01*
X040633Y034271D01*
X040625Y034251D01*
X040575D01*
X040567Y034271D01*
X040481Y034382D01*
X04037Y034468D01*
X04024Y034522D01*
X0401Y03454D01*
X03996Y034522D01*
X03983Y034468D01*
X039719Y034382D01*
X039633Y034271D01*
X039625Y034251D01*
X039575D01*
X039567Y034271D01*
X039481Y034382D01*
X03937Y034468D01*
X03924Y034522D01*
X0391Y03454D01*
X03896Y034522D01*
X03883Y034468D01*
X038719Y034382D01*
X038633Y034271D01*
X038625Y034251D01*
X038575D01*
X038567Y034271D01*
X038523Y034327D01*
Y03514D01*
X038525D01*
X038506Y035375D01*
X038451Y035605D01*
X038361Y035823D01*
X038237Y036024D01*
X038084Y036204D01*
X037904Y036357D01*
X037703Y036481D01*
X037485Y036571D01*
X037255Y036626D01*
X03702Y036645D01*
Y036643D01*
X020459D01*
X020458Y036643D01*
X020458Y036643D01*
X020448Y036643D01*
X020415Y036639D01*
X020281Y036629D01*
X020075Y036579D01*
X019879Y036498D01*
X019698Y036387D01*
X019537Y03625D01*
X0194Y036089D01*
X019289Y035908D01*
X019208Y035712D01*
X019204Y035697D01*
X019192Y03569D01*
X01909Y035588D01*
X019055Y035527D01*
X019005D01*
X01897Y035588D01*
X018868Y03569D01*
X018742Y035763D01*
X018602Y0358D01*
X018458D01*
X018318Y035763D01*
X018192Y03569D01*
X01813Y035628D01*
X01808Y035649D01*
Y0358D01*
X017175D01*
Y037466D01*
X017175Y037466D01*
Y037481D01*
X017173Y037494D01*
X017174Y037507D01*
X017172Y037539D01*
X01717Y037548D01*
X017184Y037652D01*
X017224Y03775D01*
X017288Y037833D01*
X017371Y037897D01*
X017437Y037924D01*
X017463Y037903D01*
X017566Y037848D01*
X017678Y037814D01*
X017795Y037802D01*
X018385D01*
X018502Y037814D01*
X018614Y037848D01*
X018717Y037903D01*
X018807Y037977D01*
X018881Y038067D01*
X018936Y038171D01*
X01897Y038283D01*
X018982Y038399D01*
X01897Y038515D01*
X018936Y038627D01*
X018881Y03873D01*
X018807Y038821D01*
X018717Y038895D01*
X018614Y03895D01*
X01857Y038963D01*
Y039016D01*
X018614Y039029D01*
X018717Y039084D01*
X018807Y039158D01*
X018881Y039249D01*
X018936Y039352D01*
X01897Y039464D01*
X018982Y03958D01*
X01897Y039696D01*
X018936Y039808D01*
X018881Y039911D01*
X018807Y040002D01*
X018717Y040076D01*
X018614Y040131D01*
X01857Y040144D01*
Y040197D01*
X018614Y04021D01*
X018717Y040265D01*
X018807Y040339D01*
X018881Y04043D01*
X018936Y040533D01*
X01897Y040645D01*
X018982Y040761D01*
X01897Y040877D01*
X018936Y040989D01*
X018881Y041093D01*
X018807Y041183D01*
X018717Y041257D01*
X018614Y041312D01*
X018502Y041346D01*
X018385Y041358D01*
X017795D01*
X017678Y041346D01*
X017566Y041312D01*
X017463Y041257D01*
X017373Y041183D01*
X017299Y041093D01*
X017244Y040989D01*
X01721Y040877D01*
X017198Y040761D01*
X01721Y040645D01*
X017244Y040533D01*
X017299Y04043D01*
X017373Y040339D01*
X017463Y040265D01*
X017566Y04021D01*
X01761Y040197D01*
Y040144D01*
X017566Y040131D01*
X017463Y040076D01*
X017373Y040002D01*
X01736Y039986D01*
X017328Y039984D01*
X017097Y039938D01*
X016874Y039862D01*
X016663Y039758D01*
X016467Y039627D01*
X01629Y039472D01*
X016135Y039295D01*
X016004Y039099D01*
X015953Y038994D01*
X015904Y039006D01*
X015903Y048156D01*
X015953Y048166D01*
X015977Y048108D01*
X01607Y047968D01*
X016188Y04785D01*
X016328Y047757D01*
X016482Y047693D01*
X016646Y04766D01*
X016814D01*
X016978Y047693D01*
X017132Y047757D01*
X017272Y04785D01*
X01739Y047968D01*
X017483Y048108D01*
X017547Y048262D01*
X01758Y048426D01*
Y048594D01*
X017547Y048758D01*
X017483Y048912D01*
X01739Y049052D01*
X017272Y04917D01*
X017132Y049263D01*
X017005Y049316D01*
X017015Y049366D01*
X047325Y049269D01*
D02*
G37*
G36*
X037156Y035825D02*
X037287Y035785D01*
X037408Y035721D01*
X037514Y035634D01*
X037601Y035528D01*
X037665Y035407D01*
X037705Y035276D01*
X037718Y035148D01*
X037717Y03514D01*
Y03438D01*
X037633Y034271D01*
X037625Y034251D01*
X037575D01*
X037567Y034271D01*
X037481Y034382D01*
X03737Y034468D01*
X03724Y034522D01*
X0371Y03454D01*
X03696Y034522D01*
X03683Y034468D01*
X036719Y034382D01*
X036633Y034271D01*
X036625Y034251D01*
X036575D01*
X036567Y034271D01*
X036481Y034382D01*
X03637Y034468D01*
X03624Y034522D01*
X0361Y03454D01*
X03596Y034522D01*
X03583Y034468D01*
X035719Y034382D01*
X035633Y034271D01*
X035625Y034251D01*
X035575D01*
X035567Y034271D01*
X035481Y034382D01*
X03537Y034468D01*
X03524Y034522D01*
X0351Y03454D01*
X03496Y034522D01*
X03483Y034468D01*
X034719Y034382D01*
X034633Y034271D01*
X034625Y034251D01*
X034575D01*
X034567Y034271D01*
X034481Y034382D01*
X03437Y034468D01*
X03424Y034522D01*
X0341Y03454D01*
X03396Y034522D01*
X03383Y034468D01*
X033719Y034382D01*
X033633Y034271D01*
X033625Y034251D01*
X033575D01*
X033567Y034271D01*
X033481Y034382D01*
X03337Y034468D01*
X03324Y034522D01*
X0331Y03454D01*
X03296Y034522D01*
X03283Y034468D01*
X032719Y034382D01*
X032633Y034271D01*
X032625Y034251D01*
X032575D01*
X032567Y034271D01*
X032481Y034382D01*
X03237Y034468D01*
X03224Y034522D01*
X0321Y03454D01*
X03196Y034522D01*
X03183Y034468D01*
X031719Y034382D01*
X031633Y034271D01*
X031625Y034251D01*
X031575D01*
X031567Y034271D01*
X031481Y034382D01*
X03137Y034468D01*
X03124Y034522D01*
X0311Y03454D01*
X03096Y034522D01*
X03083Y034468D01*
X030719Y034382D01*
X030633Y034271D01*
X030625Y034251D01*
X030575D01*
X030567Y034271D01*
X030481Y034382D01*
X03037Y034468D01*
X03024Y034522D01*
X0301Y03454D01*
X02996Y034522D01*
X02983Y034468D01*
X029719Y034382D01*
X029633Y034271D01*
X029579Y034141D01*
X029561Y034001D01*
Y033883D01*
X029579Y033743D01*
X029633Y033613D01*
X029719Y033502D01*
X02983Y033416D01*
X02996Y033362D01*
X0301Y033344D01*
X03024Y033362D01*
X03037Y033416D01*
X030481Y033502D01*
X030567Y033613D01*
X030575Y033633D01*
X030625D01*
X030633Y033613D01*
X030719Y033502D01*
X03083Y033416D01*
X03096Y033362D01*
X0311Y033344D01*
X03124Y033362D01*
X03137Y033416D01*
X031481Y033502D01*
X031567Y033613D01*
X031575Y033633D01*
X031625D01*
X031633Y033613D01*
X031719Y033502D01*
X03183Y033416D01*
X03196Y033362D01*
X0321Y033344D01*
X03224Y033362D01*
X03237Y033416D01*
X032481Y033502D01*
X032567Y033613D01*
X032575Y033633D01*
X032625D01*
X032633Y033613D01*
X032719Y033502D01*
X03283Y033416D01*
X03296Y033362D01*
X0331Y033344D01*
X03324Y033362D01*
X03337Y033416D01*
X033481Y033502D01*
X033567Y033613D01*
X033575Y033633D01*
X033625D01*
X033633Y033613D01*
X033692Y033536D01*
Y032636D01*
X033694Y032621D01*
X033676Y032439D01*
X033619Y032251D01*
X033526Y032077D01*
X033401Y031925D01*
X033249Y0318D01*
X033075Y031707D01*
X032886Y031649D01*
X032704Y031632D01*
X03269Y031633D01*
X029533D01*
X029527Y031683D01*
X02953Y031684D01*
X029633Y031744D01*
X029716Y031827D01*
X029776Y03193D01*
X029806Y032044D01*
Y032163D01*
X029776Y032277D01*
X029716Y03238D01*
X029633Y032464D01*
X02953Y032523D01*
X029416Y032554D01*
X029297D01*
X029183Y032523D01*
X029155Y032507D01*
X017558D01*
X01755Y032506D01*
X017486Y032515D01*
X017489Y032565D01*
X017595D01*
X017721Y032598D01*
X017834Y032664D01*
X017926Y032756D01*
X017992Y032869D01*
X018004Y032916D01*
X018056D01*
X018068Y032869D01*
X018134Y032756D01*
X018226Y032664D01*
X018339Y032598D01*
X018465Y032565D01*
X018595D01*
X018721Y032598D01*
X018834Y032664D01*
X018926Y032756D01*
X018992Y032869D01*
X019025Y032995D01*
Y033125D01*
X018992Y033251D01*
X018926Y033364D01*
X018834Y033456D01*
X018721Y033522D01*
X018595Y033555D01*
X018465D01*
X018339Y033522D01*
X018226Y033456D01*
X018134Y033364D01*
X018068Y033251D01*
X018056Y033204D01*
X018004D01*
X017992Y033251D01*
X017926Y033364D01*
X017834Y033456D01*
X017721Y033522D01*
X017595Y033555D01*
X017465D01*
X017339Y033522D01*
X017226Y033456D01*
X017221Y033451D01*
X017175Y03347D01*
Y0347D01*
X01808D01*
Y034851D01*
X01813Y034872D01*
X018192Y03481D01*
X018318Y034737D01*
X018458Y0347D01*
X018602D01*
X018742Y034737D01*
X018868Y03481D01*
X01897Y034912D01*
X019005Y034973D01*
X019055D01*
X01909Y034912D01*
X019192Y03481D01*
X019318Y034737D01*
X019458Y0347D01*
X019602D01*
X019742Y034737D01*
X019868Y03481D01*
X01997Y034912D01*
X020005Y034973D01*
X020055D01*
X02009Y034912D01*
X020192Y03481D01*
X020318Y034737D01*
X020458Y0347D01*
X020602D01*
X020742Y034737D01*
X020868Y03481D01*
X02097Y034912D01*
X021005Y034973D01*
X021055D01*
X02109Y034912D01*
X021192Y03481D01*
X021318Y034737D01*
X021458Y0347D01*
X021602D01*
X021742Y034737D01*
X021868Y03481D01*
X02197Y034912D01*
X022005Y034973D01*
X022055D01*
X02209Y034912D01*
X022107Y034896D01*
Y03459D01*
X022107Y034585D01*
X022097Y034505D01*
X022064Y034426D01*
X022012Y034358D01*
X021944Y034306D01*
X021865Y034273D01*
X021785Y034263D01*
X02178Y034263D01*
X020119D01*
X020074Y034289D01*
X019959Y03432D01*
X019841D01*
X019726Y034289D01*
X019624Y03423D01*
X01954Y034146D01*
X019481Y034044D01*
X01945Y033929D01*
Y033811D01*
X019481Y033696D01*
X01954Y033594D01*
X019624Y03351D01*
X019726Y033451D01*
X019841Y03342D01*
X019959D01*
X020074Y033451D01*
X020084Y033457D01*
X02178D01*
Y033457D01*
X021957Y03347D01*
X02213Y033512D01*
X022295Y03358D01*
X022446Y033673D01*
X022582Y033788D01*
X022697Y033924D01*
X02279Y034075D01*
X022858Y03424D01*
X0229Y034413D01*
X022913Y03459D01*
X022913D01*
Y034856D01*
X02297Y034912D01*
X023043Y035038D01*
X02308Y035178D01*
Y035322D01*
X023043Y035462D01*
X02297Y035588D01*
X022868Y03569D01*
X022742Y035763D01*
X022653Y035787D01*
X022659Y035837D01*
X03702D01*
X037028Y035838D01*
X037156Y035825D01*
D02*
G37*
G36*
X036633Y033613D02*
X036697Y03353D01*
Y033452D01*
X036697Y03345D01*
X036697Y03345D01*
X036696Y0334D01*
X036683Y033175D01*
X036637Y032903D01*
X036561Y032638D01*
X036455Y032383D01*
X036322Y032142D01*
X036162Y031917D01*
X035979Y031711D01*
X035773Y031528D01*
X035548Y031368D01*
X035307Y031235D01*
X035052Y031129D01*
X034787Y031053D01*
X034515Y031007D01*
X034253Y030992D01*
X03424Y030993D01*
X034239Y030993D01*
X034239Y030993D01*
X034239Y030993D01*
X033553D01*
X033541Y031042D01*
X033595Y031069D01*
X033792Y0312D01*
X033969Y031356D01*
X034126Y031534D01*
X034257Y031731D01*
X034362Y031943D01*
X034438Y032167D01*
X034484Y032399D01*
X034499Y032636D01*
X034499D01*
Y033525D01*
X034567Y033613D01*
X034575Y033633D01*
X034625D01*
X034633Y033613D01*
X034719Y033502D01*
X03483Y033416D01*
X03496Y033362D01*
X0351Y033344D01*
X03524Y033362D01*
X03537Y033416D01*
X035481Y033502D01*
X035567Y033613D01*
X035575Y033633D01*
X035625D01*
X035633Y033613D01*
X035719Y033502D01*
X03583Y033416D01*
X03596Y033362D01*
X0361Y033344D01*
X03624Y033362D01*
X03637Y033416D01*
X036481Y033502D01*
X036567Y033613D01*
X036575Y033633D01*
X036625D01*
X036633Y033613D01*
D02*
G37*
%LPC*%
G36*
X026869Y046181D02*
X025603D01*
Y045112D01*
X026869D01*
Y046181D01*
D02*
G37*
G36*
X026334Y044984D02*
X026138D01*
X02605Y044972D01*
X025969Y044939D01*
X025899Y044885D01*
X025845Y044815D01*
X025812Y044734D01*
X0258Y044646D01*
X025812Y044559D01*
X025845Y044478D01*
X025899Y044408D01*
X025969Y044354D01*
X02605Y04432D01*
X026138Y044309D01*
X026334D01*
X026422Y04432D01*
X026503Y044354D01*
X026573Y044408D01*
X026627Y044478D01*
X02666Y044559D01*
X026672Y044646D01*
X02666Y044734D01*
X026627Y044815D01*
X026573Y044885D01*
X026503Y044939D01*
X026422Y044972D01*
X026334Y044984D01*
D02*
G37*
G36*
X018385Y042339D02*
X017795D01*
X017692Y042326D01*
X017596Y042286D01*
X017514Y042223D01*
X017451Y042141D01*
X017411Y042045D01*
X017398Y041942D01*
X017411Y041839D01*
X017451Y041744D01*
X017514Y041661D01*
X017596Y041598D01*
X017692Y041559D01*
X017795Y041545D01*
X018385D01*
X018488Y041559D01*
X018584Y041598D01*
X018666Y041661D01*
X018729Y041744D01*
X018769Y041839D01*
X018782Y041942D01*
X018769Y042045D01*
X018729Y042141D01*
X018666Y042223D01*
X018584Y042286D01*
X018488Y042326D01*
X018385Y042339D01*
D02*
G37*
G36*
X047202Y044187D02*
X047006D01*
X046866Y044169D01*
X046736Y044115D01*
X046624Y044029D01*
X046539Y043918D01*
X046485Y043788D01*
X046466Y043648D01*
X046485Y043509D01*
X046539Y043378D01*
X046624Y043267D01*
X046736Y043181D01*
X046755Y043173D01*
Y043123D01*
X046736Y043115D01*
X046624Y043029D01*
X046539Y042918D01*
X046485Y042788D01*
X046466Y042648D01*
X046485Y042509D01*
X046539Y042378D01*
X046624Y042267D01*
X046736Y042181D01*
X046755Y042173D01*
Y042123D01*
X046736Y042115D01*
X046624Y042029D01*
X046539Y041918D01*
X046485Y041788D01*
X046466Y041648D01*
X046485Y041509D01*
X046539Y041378D01*
X046624Y041267D01*
X046736Y041181D01*
X046755Y041173D01*
Y041123D01*
X046736Y041115D01*
X046624Y041029D01*
X046539Y040918D01*
X046485Y040788D01*
X046466Y040648D01*
X046485Y040509D01*
X046539Y040378D01*
X046624Y040267D01*
X046736Y040181D01*
X046866Y040127D01*
X047006Y040109D01*
X047202D01*
X047342Y040127D01*
X047472Y040181D01*
X047584Y040267D01*
X047669Y040378D01*
X047723Y040509D01*
X047742Y040648D01*
X047723Y040788D01*
X047669Y040918D01*
X047584Y041029D01*
X047472Y041115D01*
X047453Y041123D01*
Y041173D01*
X047472Y041181D01*
X047584Y041267D01*
X047669Y041378D01*
X047723Y041509D01*
X047742Y041648D01*
X047723Y041788D01*
X047669Y041918D01*
X047584Y042029D01*
X047472Y042115D01*
X047453Y042123D01*
Y042173D01*
X047472Y042181D01*
X047584Y042267D01*
X047669Y042378D01*
X047723Y042509D01*
X047742Y042648D01*
X047723Y042788D01*
X047669Y042918D01*
X047584Y043029D01*
X047472Y043115D01*
X047453Y043123D01*
Y043173D01*
X047472Y043181D01*
X047584Y043267D01*
X047669Y043378D01*
X047723Y043509D01*
X047742Y043648D01*
X047723Y043788D01*
X047669Y043918D01*
X047584Y044029D01*
X047472Y044115D01*
X047342Y044169D01*
X047202Y044187D01*
D02*
G37*
G36*
X026334Y044186D02*
X026138D01*
X025998Y044167D01*
X025868Y044113D01*
X025756Y044028D01*
X025671Y043916D01*
X025617Y043786D01*
X025598Y043646D01*
X025617Y043507D01*
X025671Y043377D01*
X025756Y043265D01*
X025868Y043179D01*
X025887Y043171D01*
Y043121D01*
X025868Y043113D01*
X025756Y043028D01*
X025671Y042916D01*
X025617Y042786D01*
X025598Y042646D01*
X025617Y042507D01*
X025671Y042377D01*
X025756Y042265D01*
X025868Y042179D01*
X025887Y042171D01*
Y042121D01*
X025868Y042113D01*
X025756Y042028D01*
X025671Y041916D01*
X025617Y041786D01*
X025598Y041646D01*
X025617Y041507D01*
X025671Y041377D01*
X025756Y041265D01*
X025868Y041179D01*
X025887Y041171D01*
Y041121D01*
X025868Y041113D01*
X025756Y041028D01*
X025671Y040916D01*
X025617Y040786D01*
X025598Y040646D01*
X025617Y040507D01*
X025671Y040377D01*
X025756Y040265D01*
X025868Y040179D01*
X025887Y040171D01*
Y040121D01*
X025868Y040113D01*
X025756Y040028D01*
X025671Y039916D01*
X025617Y039786D01*
X025598Y039646D01*
X025617Y039507D01*
X025671Y039377D01*
X025756Y039265D01*
X025868Y039179D01*
X025887Y039171D01*
Y039121D01*
X025868Y039113D01*
X025756Y039028D01*
X025671Y038916D01*
X025617Y038786D01*
X025598Y038646D01*
X025617Y038507D01*
X025671Y038377D01*
X025756Y038265D01*
X025843Y038199D01*
Y038056D01*
X025842Y038006D01*
X025842Y038004D01*
X025846Y037957D01*
X025857Y037818D01*
X0259Y037637D01*
X025972Y037465D01*
X026069Y037306D01*
X02619Y037164D01*
X026332Y037043D01*
X026491Y036946D01*
X026663Y036874D01*
X026844Y036831D01*
X026983Y03682D01*
X02703Y036816D01*
X027032Y036816D01*
Y036817D01*
X04287D01*
X042881Y036818D01*
X043032Y036803D01*
X043187Y036756D01*
X043331Y036679D01*
X043456Y036576D01*
X043559Y036451D01*
X043636Y036307D01*
X043683Y036152D01*
X043698Y036001D01*
X043697Y03599D01*
Y034353D01*
X043633Y034271D01*
X043579Y034141D01*
X043561Y034001D01*
Y033883D01*
X043579Y033743D01*
X043633Y033613D01*
X043719Y033502D01*
X04383Y033416D01*
X04396Y033362D01*
X0441Y033344D01*
X04424Y033362D01*
X04437Y033416D01*
X044481Y033502D01*
X044567Y033613D01*
X044621Y033743D01*
X044639Y033883D01*
Y034001D01*
X044621Y034141D01*
X044567Y034271D01*
X044503Y034353D01*
Y03599D01*
X044503D01*
X04449Y036203D01*
X044448Y036413D01*
X044379Y036615D01*
X044285Y036807D01*
X044166Y036984D01*
X044025Y037145D01*
X043864Y037286D01*
X043687Y037405D01*
X043495Y037499D01*
X043293Y037568D01*
X043083Y03761D01*
X04287Y037624D01*
Y037623D01*
X027031D01*
X027024Y037623D01*
X026931Y037635D01*
X026839Y037673D01*
X02676Y037734D01*
X026699Y037813D01*
X026661Y037905D01*
X026648Y037998D01*
X026649Y038005D01*
Y038214D01*
X026716Y038265D01*
X026801Y038377D01*
X026855Y038507D01*
X026874Y038646D01*
X026855Y038786D01*
X026801Y038916D01*
X026716Y039028D01*
X026604Y039113D01*
X026585Y039121D01*
Y039171D01*
X026604Y039179D01*
X026716Y039265D01*
X026801Y039377D01*
X026855Y039507D01*
X026874Y039646D01*
X026855Y039786D01*
X026801Y039916D01*
X026716Y040028D01*
X026604Y040113D01*
X026585Y040121D01*
Y040171D01*
X026604Y040179D01*
X0267Y040253D01*
X029244D01*
X029254Y040254D01*
X029369Y040239D01*
X029486Y04019D01*
X029587Y040113D01*
X029664Y040013D01*
X029713Y039896D01*
X029728Y03978D01*
X029727Y03977D01*
Y038514D01*
X029721Y038504D01*
X02969Y038389D01*
Y038271D01*
X029721Y038156D01*
X02978Y038054D01*
X029864Y03797D01*
X029966Y037911D01*
X030081Y03788D01*
X030199D01*
X030314Y037911D01*
X030416Y03797D01*
X0305Y038054D01*
X030559Y038156D01*
X03059Y038271D01*
Y038389D01*
X030559Y038504D01*
X030533Y038549D01*
Y03977D01*
X030534D01*
X030518Y039972D01*
X030471Y040169D01*
X030393Y040356D01*
X030288Y040528D01*
X030156Y040682D01*
X030002Y040814D01*
X029829Y04092D01*
X029642Y040997D01*
X029446Y041044D01*
X029244Y04106D01*
Y04106D01*
X026674D01*
X026604Y041113D01*
X026585Y041121D01*
Y041171D01*
X026604Y041179D01*
X0267Y041253D01*
X040034D01*
X040041Y041254D01*
X040161Y041242D01*
X040284Y041205D01*
X040397Y041144D01*
X040496Y041063D01*
X040578Y040964D01*
X040638Y04085D01*
X040676Y040728D01*
X040683Y040649D01*
X040687Y0406D01*
X040687Y0406D01*
X040687Y040598D01*
Y039561D01*
X040671Y039534D01*
X04064Y039419D01*
Y039301D01*
X040671Y039186D01*
X04073Y039084D01*
X040814Y039D01*
X040916Y038941D01*
X041031Y03891D01*
X041149D01*
X041264Y038941D01*
X041366Y039D01*
X04145Y039084D01*
X041509Y039186D01*
X04154Y039301D01*
Y039419D01*
X041509Y039534D01*
X041493Y039561D01*
Y040599D01*
X041494Y0406D01*
X041494D01*
X041477Y040829D01*
X041423Y041051D01*
X041335Y041263D01*
X041216Y041459D01*
X041067Y041633D01*
X040892Y041782D01*
X040697Y041902D01*
X040485Y041989D01*
X040262Y042043D01*
X040034Y042061D01*
Y04206D01*
X026674D01*
X026604Y042113D01*
X026585Y042121D01*
Y042171D01*
X026604Y042179D01*
X026716Y042265D01*
X026801Y042377D01*
X026855Y042507D01*
X026874Y042646D01*
X026855Y042786D01*
X026801Y042916D01*
X026716Y043028D01*
X026604Y043113D01*
X026585Y043121D01*
Y043171D01*
X026604Y043179D01*
X026716Y043265D01*
X026801Y043377D01*
X026855Y043507D01*
X026874Y043646D01*
X026855Y043786D01*
X026801Y043916D01*
X026716Y044028D01*
X026604Y044113D01*
X026474Y044167D01*
X026334Y044186D01*
D02*
G37*
G36*
X02366Y03767D02*
X02356D01*
X023468Y037632D01*
X023398Y037562D01*
X02336Y03747D01*
Y03737D01*
X023398Y037278D01*
X023468Y037208D01*
X02356Y03717D01*
X02366D01*
X023752Y037208D01*
X023822Y037278D01*
X02386Y03737D01*
Y03747D01*
X023822Y037562D01*
X023752Y037632D01*
X02366Y03767D01*
D02*
G37*
G36*
X018385Y037615D02*
X017795D01*
X017692Y037601D01*
X017596Y037562D01*
X017514Y037499D01*
X017451Y037416D01*
X017411Y037321D01*
X017398Y037218D01*
X017411Y037115D01*
X017451Y037019D01*
X017514Y036937D01*
X017596Y036874D01*
X017692Y036834D01*
X017795Y036821D01*
X018385D01*
X018488Y036834D01*
X018584Y036874D01*
X018666Y036937D01*
X018729Y037019D01*
X018769Y037115D01*
X018782Y037218D01*
X018769Y037321D01*
X018729Y037416D01*
X018666Y037499D01*
X018584Y037562D01*
X018488Y037601D01*
X018385Y037615D01*
D02*
G37*
G36*
X0431Y034339D02*
X043013Y034327D01*
X042931Y034293D01*
X042861Y03424D01*
X042808Y03417D01*
X042774Y034088D01*
X042762Y034001D01*
Y033883D01*
X042774Y033796D01*
X042808Y033714D01*
X042861Y033644D01*
X042931Y033591D01*
X043013Y033557D01*
X0431Y033545D01*
X043187Y033557D01*
X043269Y033591D01*
X043339Y033644D01*
X043392Y033714D01*
X043426Y033796D01*
X043438Y033883D01*
Y034001D01*
X043426Y034088D01*
X043392Y03417D01*
X043339Y03424D01*
X043269Y034293D01*
X043187Y034327D01*
X0431Y034339D01*
D02*
G37*
G36*
X045386Y03041D02*
X045294D01*
X045205Y030386D01*
X045125Y03034D01*
X04506Y030275D01*
X045014Y030195D01*
X04499Y030106D01*
Y030014D01*
X045014Y029925D01*
X04506Y029845D01*
X045125Y02978D01*
X045205Y029734D01*
X045294Y02971D01*
X045386D01*
X045475Y029734D01*
X045555Y02978D01*
X04562Y029845D01*
X045666Y029925D01*
X04569Y030014D01*
Y030106D01*
X045666Y030195D01*
X04562Y030275D01*
X045555Y03034D01*
X045475Y030386D01*
X045386Y03041D01*
D02*
G37*
G36*
X036984Y03104D02*
X036796D01*
X036613Y031003D01*
X03644Y030932D01*
X036284Y030828D01*
X036152Y030696D01*
X036048Y03054D01*
X035977Y030367D01*
X03594Y030184D01*
Y029996D01*
X035977Y029813D01*
X036048Y02964D01*
X036152Y029484D01*
X036284Y029352D01*
X03644Y029248D01*
X036613Y029177D01*
X036796Y02914D01*
X036984D01*
X037167Y029177D01*
X03734Y029248D01*
X037496Y029352D01*
X037628Y029484D01*
X037732Y02964D01*
X037803Y029813D01*
X03784Y029996D01*
Y030184D01*
X037803Y030367D01*
X037732Y03054D01*
X037628Y030696D01*
X037496Y030828D01*
X03734Y030932D01*
X037167Y031003D01*
X036984Y03104D01*
D02*
G37*
G36*
X045412Y02861D02*
X045268D01*
X045128Y028573D01*
X045002Y0285D01*
X0449Y028398D01*
X044827Y028272D01*
X04479Y028132D01*
Y027988D01*
X044827Y027848D01*
X0449Y027722D01*
X045002Y02762D01*
X045128Y027547D01*
X045268Y02751D01*
X045412D01*
X045552Y027547D01*
X045678Y02762D01*
X04578Y027722D01*
X045853Y027848D01*
X04589Y027988D01*
Y028132D01*
X045853Y028272D01*
X04578Y028398D01*
X045678Y0285D01*
X045552Y028573D01*
X045412Y02861D01*
D02*
G37*
G36*
X033056Y02818D02*
X032964D01*
X032875Y028156D01*
X032795Y02811D01*
X03273Y028045D01*
X032684Y027965D01*
X03266Y027876D01*
Y027784D01*
X032684Y027695D01*
X03273Y027615D01*
X032795Y02755D01*
X032875Y027504D01*
X032964Y02748D01*
X033056D01*
X033145Y027504D01*
X033225Y02755D01*
X03329Y027615D01*
X033336Y027695D01*
X03336Y027784D01*
Y027876D01*
X033336Y027965D01*
X03329Y028045D01*
X033225Y02811D01*
X033145Y028156D01*
X033056Y02818D01*
D02*
G37*
G36*
X03589Y028493D02*
X035772Y028481D01*
X035659Y028447D01*
X035555Y028391D01*
X035464Y028316D01*
X035389Y028225D01*
X035333Y028121D01*
X035299Y028008D01*
X035287Y02789D01*
Y02769D01*
X035299Y027572D01*
X035333Y027459D01*
X035389Y027355D01*
X035464Y027264D01*
X035555Y027189D01*
X035659Y027133D01*
X035772Y027099D01*
X03589Y027087D01*
X036008Y027099D01*
X036121Y027133D01*
X036225Y027189D01*
X036316Y027264D01*
X036391Y027355D01*
X036447Y027459D01*
X036469Y027531D01*
X036522Y027534D01*
X036541Y027488D01*
X036605Y027405D01*
X036688Y027341D01*
X036786Y0273D01*
X03689Y027287D01*
X036994Y0273D01*
X037092Y027341D01*
X037175Y027405D01*
X037239Y027488D01*
X03724Y02749D01*
X03729Y02748D01*
Y02709D01*
X03849D01*
Y02849D01*
X03729D01*
Y0281D01*
X03724Y02809D01*
X037239Y028092D01*
X037175Y028175D01*
X037092Y028239D01*
X036994Y02828D01*
X03689Y028293D01*
X036786Y02828D01*
X036688Y028239D01*
X036605Y028175D01*
X036541Y028092D01*
X036522Y028046D01*
X036469Y028049D01*
X036447Y028121D01*
X036391Y028225D01*
X036316Y028316D01*
X036225Y028391D01*
X036121Y028447D01*
X036008Y028481D01*
X03589Y028493D01*
D02*
G37*
G36*
X01991Y02768D02*
X01891D01*
Y02608D01*
X01991D01*
Y02768D01*
D02*
G37*
G36*
X0421Y024788D02*
X04196Y02477D01*
X04183Y024716D01*
X041719Y02463D01*
X041633Y024519D01*
X041625Y024499D01*
X041575D01*
X041567Y024519D01*
X041481Y02463D01*
X04137Y024716D01*
X04124Y02477D01*
X0411Y024788D01*
X04096Y02477D01*
X04083Y024716D01*
X040719Y02463D01*
X040633Y024519D01*
X040625Y024499D01*
X040575D01*
X040567Y024519D01*
X040481Y02463D01*
X04037Y024716D01*
X04024Y02477D01*
X0401Y024788D01*
X03996Y02477D01*
X03983Y024716D01*
X039719Y02463D01*
X039633Y024519D01*
X039625Y024499D01*
X039575D01*
X039567Y024519D01*
X039481Y02463D01*
X03937Y024716D01*
X03924Y02477D01*
X0391Y024788D01*
X03896Y02477D01*
X03883Y024716D01*
X038719Y02463D01*
X038633Y024519D01*
X038625Y024499D01*
X038575D01*
X038567Y024519D01*
X038481Y02463D01*
X03837Y024716D01*
X03824Y02477D01*
X0381Y024788D01*
X03796Y02477D01*
X03783Y024716D01*
X037719Y02463D01*
X037633Y024519D01*
X037625Y024499D01*
X037575D01*
X037567Y024519D01*
X037481Y02463D01*
X03737Y024716D01*
X03724Y02477D01*
X0371Y024788D01*
X03696Y02477D01*
X03683Y024716D01*
X036719Y02463D01*
X036633Y024519D01*
X036625Y024499D01*
X036575D01*
X036567Y024519D01*
X036481Y02463D01*
X03637Y024716D01*
X03624Y02477D01*
X0361Y024788D01*
X03596Y02477D01*
X03583Y024716D01*
X035719Y02463D01*
X035633Y024519D01*
X035625Y024499D01*
X035575D01*
X035567Y024519D01*
X035481Y02463D01*
X03537Y024716D01*
X03524Y02477D01*
X0351Y024788D01*
X03496Y02477D01*
X03483Y024716D01*
X034719Y02463D01*
X034633Y024519D01*
X034625Y024499D01*
X034575D01*
X034567Y024519D01*
X034481Y02463D01*
X03437Y024716D01*
X03424Y02477D01*
X0341Y024788D01*
X03396Y02477D01*
X03383Y024716D01*
X033719Y02463D01*
X033633Y024519D01*
X033625Y024499D01*
X033575D01*
X033567Y024519D01*
X033481Y02463D01*
X03337Y024716D01*
X03324Y02477D01*
X0331Y024788D01*
X03296Y02477D01*
X03283Y024716D01*
X032719Y02463D01*
X032633Y024519D01*
X032625Y024499D01*
X032575D01*
X032567Y024519D01*
X032481Y02463D01*
X03237Y024716D01*
X03224Y02477D01*
X0321Y024788D01*
X03196Y02477D01*
X03183Y024716D01*
X031719Y02463D01*
X031633Y024519D01*
X031625Y024499D01*
X031575D01*
X031567Y024519D01*
X031481Y02463D01*
X03137Y024716D01*
X03124Y02477D01*
X0311Y024788D01*
X03096Y02477D01*
X03083Y024716D01*
X030719Y02463D01*
X030633Y024519D01*
X030625Y024499D01*
X030575D01*
X030567Y024519D01*
X030481Y02463D01*
X03037Y024716D01*
X03024Y02477D01*
X0301Y024788D01*
X02996Y02477D01*
X02983Y024716D01*
X029719Y02463D01*
X029633Y024519D01*
X029579Y024389D01*
X029561Y024249D01*
Y024131D01*
X029579Y023991D01*
X029633Y023861D01*
X029719Y02375D01*
X02983Y023664D01*
X02996Y02361D01*
X0301Y023592D01*
X03024Y02361D01*
X03037Y023664D01*
X030481Y02375D01*
X030567Y023861D01*
X030575Y023881D01*
X030625D01*
X030633Y023861D01*
X030719Y02375D01*
X03083Y023664D01*
X03096Y02361D01*
X0311Y023592D01*
X03124Y02361D01*
X03137Y023664D01*
X031481Y02375D01*
X031567Y023861D01*
X031575Y023881D01*
X031625D01*
X031633Y023861D01*
X031719Y02375D01*
X03183Y023664D01*
X03196Y02361D01*
X0321Y023592D01*
X03224Y02361D01*
X03237Y023664D01*
X032481Y02375D01*
X032567Y023861D01*
X032575Y023881D01*
X032625D01*
X032633Y023861D01*
X032719Y02375D01*
X03283Y023664D01*
X03296Y02361D01*
X0331Y023592D01*
X03324Y02361D01*
X03337Y023664D01*
X033481Y02375D01*
X033567Y023861D01*
X033575Y023881D01*
X033625D01*
X033633Y023861D01*
X033719Y02375D01*
X03383Y023664D01*
X03396Y02361D01*
X0341Y023592D01*
X03424Y02361D01*
X03437Y023664D01*
X034481Y02375D01*
X034567Y023861D01*
X034575Y023881D01*
X034625D01*
X034633Y023861D01*
X034719Y02375D01*
X03483Y023664D01*
X03496Y02361D01*
X0351Y023592D01*
X03524Y02361D01*
X03537Y023664D01*
X035481Y02375D01*
X035567Y023861D01*
X035575Y023881D01*
X035625D01*
X035633Y023861D01*
X035719Y02375D01*
X03583Y023664D01*
X03596Y02361D01*
X0361Y023592D01*
X03624Y02361D01*
X03637Y023664D01*
X036481Y02375D01*
X036567Y023861D01*
X036575Y023881D01*
X036625D01*
X036633Y023861D01*
X036719Y02375D01*
X03683Y023664D01*
X03696Y02361D01*
X0371Y023592D01*
X03724Y02361D01*
X03737Y023664D01*
X037481Y02375D01*
X037567Y023861D01*
X037575Y023881D01*
X037625D01*
X037633Y023861D01*
X037719Y02375D01*
X03783Y023664D01*
X03796Y02361D01*
X0381Y023592D01*
X03824Y02361D01*
X03837Y023664D01*
X038481Y02375D01*
X038567Y023861D01*
X038575Y023881D01*
X038625D01*
X038633Y023861D01*
X038719Y02375D01*
X03883Y023664D01*
X03896Y02361D01*
X0391Y023592D01*
X03924Y02361D01*
X03937Y023664D01*
X039481Y02375D01*
X039567Y023861D01*
X039575Y023881D01*
X039625D01*
X039633Y023861D01*
X039719Y02375D01*
X03983Y023664D01*
X03996Y02361D01*
X0401Y023592D01*
X04024Y02361D01*
X04037Y023664D01*
X040481Y02375D01*
X040567Y023861D01*
X040575Y023881D01*
X040625D01*
X040633Y023861D01*
X040719Y02375D01*
X04083Y023664D01*
X04096Y02361D01*
X0411Y023592D01*
X04124Y02361D01*
X04137Y023664D01*
X041481Y02375D01*
X041567Y023861D01*
X041575Y023881D01*
X041625D01*
X041633Y023861D01*
X041719Y02375D01*
X04183Y023664D01*
X04196Y02361D01*
X0421Y023592D01*
X04224Y02361D01*
X04237Y023664D01*
X042481Y02375D01*
X042567Y023861D01*
X042621Y023991D01*
X042639Y024131D01*
Y024249D01*
X042621Y024389D01*
X042567Y024519D01*
X042481Y02463D01*
X04237Y024716D01*
X04224Y02477D01*
X0421Y024788D01*
D02*
G37*
G36*
X02171Y02538D02*
X02011D01*
Y02438D01*
X02171D01*
Y02538D01*
D02*
G37*
G36*
X0431Y024587D02*
X043013Y024575D01*
X042931Y024541D01*
X042861Y024488D01*
X042808Y024418D01*
X042774Y024336D01*
X042762Y024249D01*
Y024131D01*
X042774Y024044D01*
X042808Y023962D01*
X042861Y023892D01*
X042931Y023839D01*
X043013Y023805D01*
X0431Y023793D01*
X043187Y023805D01*
X043269Y023839D01*
X043339Y023892D01*
X043392Y023962D01*
X043426Y024044D01*
X043438Y024131D01*
Y024249D01*
X043426Y024336D01*
X043392Y024418D01*
X043339Y024488D01*
X043269Y024541D01*
X043187Y024575D01*
X0431Y024587D01*
D02*
G37*
G36*
X0441Y024788D02*
X04396Y02477D01*
X04383Y024716D01*
X043719Y02463D01*
X043633Y024519D01*
X043579Y024389D01*
X043561Y024249D01*
Y024131D01*
X043579Y023991D01*
X043633Y023861D01*
X043719Y02375D01*
X04383Y023664D01*
X04396Y02361D01*
X0441Y023592D01*
X04424Y02361D01*
X04437Y023664D01*
X044481Y02375D01*
X044567Y023861D01*
X044621Y023991D01*
X044639Y024131D01*
Y024249D01*
X044621Y024389D01*
X044567Y024519D01*
X044481Y02463D01*
X04437Y024716D01*
X04424Y02477D01*
X0441Y024788D01*
D02*
G37*
G36*
X023576Y0356D02*
X023484D01*
X023395Y035576D01*
X023315Y03553D01*
X02325Y035465D01*
X023204Y035385D01*
X02318Y035296D01*
Y035204D01*
X023204Y035115D01*
X02325Y035035D01*
X023315Y03497D01*
X023395Y034924D01*
X023484Y0349D01*
X023576D01*
X023665Y034924D01*
X023745Y03497D01*
X02381Y035035D01*
X023856Y035115D01*
X02388Y035204D01*
Y035296D01*
X023856Y035385D01*
X02381Y035465D01*
X023745Y03553D01*
X023665Y035576D01*
X023576Y0356D01*
D02*
G37*
%LPD*%
D12*
X01528Y022729D02*
X01548Y022731D01*
X01508Y049609D02*
X01528Y049611D01*
X015176Y023328D02*
X01538Y02273D01*
X015576Y023331D01*
X014984Y049009D02*
X01518Y04961D01*
X015384Y049012D01*
X015303Y033011D02*
X01538Y02273D01*
X01518Y04961D02*
X015257Y039329D01*
X04857Y02185D02*
X04857Y02205D01*
X01553Y02186D02*
X01553Y02206D01*
X04797Y02175D02*
X04857Y02195D01*
X04797Y02215D02*
X04857Y02195D01*
X01553Y02196D02*
X01613Y02176D01*
X01553Y02196D02*
X01613Y02216D01*
X035209Y021954D02*
X04857Y02195D01*
X01553Y02196D02*
X028891Y021956D01*
D37*
X03424Y03059D02*
G03*
X0371Y03345I-0J00286D01*
G01*
X03269Y03123D02*
G03*
X034096Y032636I0J001406D01*
G01*
X025236Y025592D02*
G03*
X02583Y026052I000067J000527D01*
G01*
X02808Y03059D02*
G03*
X02583Y02834I0J-00225D01*
G01*
X02754Y03123D02*
G03*
X02493Y02862I0J-00261D01*
G01*
X04109Y0406D02*
G03*
X040034Y041656I-001056J-0D01*
G01*
X03013Y03977D02*
G03*
X029244Y040656I-000886J0D01*
G01*
X026246Y038005D02*
G03*
X027031Y03722I000784J-000001D01*
G01*
X0441Y03599D02*
G03*
X04287Y03722I-00123J0D01*
G01*
X03812Y03514D02*
G03*
X03702Y03624I-0011J0D01*
G01*
X020448Y03624D02*
G03*
X019547Y035251I000044J-000945D01*
G01*
X016771Y03289D02*
G03*
X017558Y032104I000785J-000001D01*
G01*
X02178Y03386D02*
G03*
X02251Y03459I0J00073D01*
G01*
X0219Y02958D02*
G03*
X0206Y03088I-0013J-0D01*
G01*
X016171Y031592D02*
G03*
X016823Y03088I000682J-00003D01*
G01*
X017605Y039595D02*
G03*
X016168Y038241I-000042J-001395D01*
G01*
X017507Y03835D02*
G03*
X016769Y037513I000066J-000802D01*
G01*
X03669Y027359D02*
Y027382D01*
X0371Y033451D02*
Y033942D01*
X034239Y03059D02*
X03424Y03059D01*
X02808Y03059D02*
X034239D01*
X0371Y03345D02*
X0371Y033451D01*
X034096Y032636D02*
Y033938D01*
X02754Y03123D02*
X03269D01*
X02583Y026648D02*
Y02834D01*
X02583Y026052D02*
X02583Y026648D01*
X02493Y02563D02*
X025236Y025592D01*
X02493Y02862D02*
X02493Y028619D01*
Y02763D02*
Y028619D01*
X034096Y033938D02*
X0341Y033942D01*
X04109Y03936D02*
Y040599D01*
X04109Y0406D02*
X04109Y040599D01*
X026246Y041656D02*
X040034D01*
X03013Y03834D02*
X03014Y03833D01*
X03013Y03834D02*
Y03977D01*
X026246Y040656D02*
X029244D01*
X027031Y03722D02*
X04287D01*
X026246Y038005D02*
Y038656D01*
X0441Y033942D02*
Y03599D01*
X01991Y03386D02*
X02178D01*
X0199Y03387D02*
X01991Y03386D01*
X020459Y03624D02*
X03702D01*
X03812Y033962D02*
Y03514D01*
X01953Y03525D02*
X019547Y035251D01*
X01953Y03525D02*
X01953Y03525D01*
X020448Y03624D02*
X020459Y03624D01*
X017558Y032104D02*
X029356D01*
X016771Y03289D02*
Y037466D01*
X016771Y037466D02*
X016771Y037466D01*
X02251Y03459D02*
Y03523D01*
X0219Y02689D02*
Y029579D01*
X0219Y02958D02*
X0219Y029579D01*
X016834Y03088D02*
X0206D01*
X016168Y038235D02*
X016171Y0316D01*
X016823Y03088D02*
X016834Y03088D01*
X016171Y0316D02*
X016171Y031592D01*
X016168Y038241D02*
X016168Y038235D01*
X017606Y039595D02*
X01809Y03958D01*
X017605Y039595D02*
X017606Y039595D01*
X016771Y037466D02*
Y037481D01*
X016769Y037513D02*
X016771Y037481D01*
X017507Y03835D02*
X017507Y03835D01*
X016769Y037513D02*
X016769Y037513D01*
X017507Y03835D02*
X01809Y038399D01*
X02251Y03523D02*
X02253Y03525D01*
X0381Y033942D02*
X03812Y033962D01*
X0219Y02689D02*
X02191Y02688D01*
D38*
X03689Y02779D02*
D03*
X03589D02*
D03*
D39*
X03301Y02783D02*
D03*
X02353Y03525D02*
D03*
X02253D02*
D03*
X02153D02*
D03*
X02053D02*
D03*
X01853D02*
D03*
X01953D02*
D03*
X03301Y02983D02*
D03*
X04534Y02806D02*
D03*
Y03006D02*
D03*
D40*
X03689Y03009D02*
D03*
D41*
X03789Y02779D02*
D03*
D42*
X0301Y02419D02*
D03*
X0311D02*
D03*
X0321D02*
D03*
X0331D02*
D03*
X0341D02*
D03*
X0351D02*
D03*
X0361D02*
D03*
X0371D02*
D03*
X0381D02*
D03*
X0391D02*
D03*
X0401D02*
D03*
X0411D02*
D03*
X0421D02*
D03*
X0431D02*
D03*
X0441D02*
D03*
X0301Y033942D02*
D03*
X0311D02*
D03*
X0321D02*
D03*
X0331D02*
D03*
X0341D02*
D03*
X0351D02*
D03*
X0361D02*
D03*
X0371D02*
D03*
X0381D02*
D03*
X0391D02*
D03*
X0401D02*
D03*
X0411D02*
D03*
X0421D02*
D03*
X0431D02*
D03*
X0441D02*
D03*
D43*
X04744Y02394D02*
D03*
X01673Y04851D02*
D03*
X04752Y04839D02*
D03*
X01672Y02394D02*
D03*
D44*
X01853Y03306D02*
D03*
X01753D02*
D03*
X01853Y03006D02*
D03*
D45*
X01753D02*
D03*
D46*
Y03525D02*
D03*
D47*
X02091Y02488D02*
D03*
D48*
X01941Y02688D02*
D03*
X02191D02*
D03*
D49*
X01809Y041942D02*
D03*
Y040761D02*
D03*
Y03958D02*
D03*
Y038399D02*
D03*
Y037218D02*
D03*
D50*
X024908Y03131D02*
D03*
D51*
X022152D02*
D03*
D52*
X02493Y02663D02*
D03*
Y02763D02*
D03*
D53*
Y02563D02*
D03*
D54*
X026236Y043646D02*
D03*
Y044646D02*
D03*
Y042646D02*
D03*
Y041646D02*
D03*
Y040646D02*
D03*
Y039646D02*
D03*
Y038646D02*
D03*
X047104Y043648D02*
D03*
Y042648D02*
D03*
Y041648D02*
D03*
Y040648D02*
D03*
D55*
X026236Y045646D02*
D03*
D56*
X02361Y03742D02*
D03*
X03014Y03833D02*
D03*
X0199Y03387D02*
D03*
X029356Y032104D02*
D03*
X04109Y03936D02*
D03*
D57*
X0155Y038831D02*
X015399Y03903D01*
X015197Y039228D01*
X014997Y039227D01*
X014898Y039126D01*
X0149Y038926D01*
X015Y038827D01*
X0151Y038828D01*
X015199Y038929D01*
X015197Y039228D01*
X015402Y03863D02*
X015502Y038531D01*
X015504Y038331D01*
X015405Y03823D01*
X015305Y03823D01*
X015204Y038329D01*
X015105Y038228D01*
X015005Y038227D01*
X014904Y038327D01*
X014903Y038527D01*
X015002Y038627D01*
X015102Y038628D01*
X015202Y038529D01*
X015302Y038629D01*
X015402Y03863D01*
X015202Y038529D02*
X015204Y038329D01*
X014906Y038027D02*
X015006Y038027D01*
X015007Y037927D01*
X014907Y037927D01*
X014906Y038027D01*
X014913Y037127D02*
X01491Y037527D01*
X015313Y03713D01*
X015413Y037131D01*
X015512Y037231D01*
X015511Y037431D01*
X01541Y037531D01*
X015514Y036932D02*
X015517Y036532D01*
X015417Y036531D01*
X015014Y036928D01*
X014914Y036927D01*
X015519Y036332D02*
X015522Y035932D01*
X015422Y035931D01*
X015019Y036328D01*
X014919Y036327D01*
X014929Y034928D02*
X015128Y035129D01*
X015328Y035131D01*
X015529Y034932D01*
X014932Y034628D02*
X015331Y034631D01*
X015332Y034531D01*
X015233Y03443D01*
X014933Y034428D01*
X015233Y03443D01*
X015334Y034331D01*
X015234Y03423D01*
X014935Y034228D01*
X014936Y034028D02*
X015336Y034031D01*
X015337Y033931D01*
X015237Y03383D01*
X014938Y033828D01*
X015237Y03383D01*
X015338Y033731D01*
X015239Y03363D01*
X014939Y033628D01*
X01494Y033428D02*
X015142Y03323D01*
X015342Y033231D01*
X01554Y033433D01*
X028991Y022096D02*
X029091Y022196D01*
X029291Y022196D01*
X029391Y022096D01*
X029391Y021996D01*
X029291Y021896D01*
X029391Y021796D01*
X029391Y021696D01*
X029291Y021596D01*
X029091Y021596D01*
X028991Y021696D01*
X028991Y021796D01*
X029091Y021896D01*
X028991Y021996D01*
X028991Y022096D01*
X029091Y021896D02*
X029291Y021896D01*
X029591Y022096D02*
X029691Y022196D01*
X029891Y022196D01*
X029991Y022096D01*
X029991Y021996D01*
X029891Y021896D01*
X029791Y021896D01*
X029891Y021896D01*
X029991Y021796D01*
X029991Y021696D01*
X029891Y021596D01*
X029691Y021596D01*
X029591Y021696D01*
X03019Y021596D02*
X03019Y021696D01*
X03029Y021696D01*
X03029Y021596D01*
X03019Y021596D01*
X03069Y021695D02*
X03079Y021595D01*
X03099Y021595D01*
X03109Y021695D01*
X03109Y022095D01*
X03099Y022195D01*
X03079Y022195D01*
X03069Y022095D01*
X03069Y021995D01*
X03079Y021895D01*
X03109Y021895D01*
X03169Y021595D02*
X03129Y021595D01*
X03169Y021995D01*
X03169Y022095D01*
X03159Y022195D01*
X03139Y022195D01*
X03129Y022095D01*
X03229Y021595D02*
X03189Y021595D01*
X03229Y021995D01*
X03229Y022095D01*
X03219Y022195D01*
X03199Y022195D01*
X03189Y022095D01*
X033289Y021595D02*
X03309Y021795D01*
X03309Y021995D01*
X03329Y022195D01*
X033589Y021595D02*
X033589Y021995D01*
X033689Y021994D01*
X033789Y021894D01*
X033789Y021595D01*
X033789Y021894D01*
X033889Y021994D01*
X033989Y021894D01*
X033989Y021595D01*
X034189Y021594D02*
X034189Y021994D01*
X034289Y021994D01*
X034389Y021894D01*
X034389Y021594D01*
X034389Y021894D01*
X034489Y021994D01*
X034589Y021894D01*
X034589Y021594D01*
X034789Y021594D02*
X034989Y021794D01*
X034989Y021994D01*
X034789Y022194D01*
M02*
