G04*
G04 #@! TF.GenerationSoftware,Altium Limited,Altium Designer,21.0.8 (223)*
G04*
G04 Layer_Color=255*
%FSTAX24Y24*%
%MOIN*%
G70*
G04*
G04 #@! TF.SameCoordinates,A57ED762-F1FC-47E5-BACA-E58B220B156E*
G04*
G04*
G04 #@! TF.FilePolarity,Positive*
G04*
G01*
G75*
%ADD38O,0.0800X0.1000*%
%ADD39C,0.0700*%
%ADD40C,0.1500*%
%ADD41R,0.0800X0.1000*%
%ADD42O,0.0669X0.0787*%
%ADD43C,0.1299*%
%ADD44C,0.0591*%
%ADD45R,0.0591X0.0591*%
%ADD46R,0.0700X0.0700*%
%ADD47R,0.1600X0.1000*%
%ADD48R,0.1000X0.1600*%
%ADD49O,0.1378X0.0787*%
%ADD50R,0.0787X0.0787*%
%ADD51C,0.0787*%
%ADD52O,0.1000X0.0650*%
%ADD53R,0.1000X0.0650*%
%ADD54O,0.0866X0.0669*%
%ADD55R,0.0866X0.0669*%
D38*
X03689Y02779D02*
D03*
X03589D02*
D03*
D39*
X03301Y02783D02*
D03*
X02353Y03525D02*
D03*
X02253D02*
D03*
X02153D02*
D03*
X02053D02*
D03*
X01853D02*
D03*
X01953D02*
D03*
X03301Y02983D02*
D03*
X04534Y02806D02*
D03*
Y03006D02*
D03*
D40*
X03689Y03009D02*
D03*
D41*
X03789Y02779D02*
D03*
D42*
X0301Y02419D02*
D03*
X0311D02*
D03*
X0321D02*
D03*
X0331D02*
D03*
X0341D02*
D03*
X0351D02*
D03*
X0361D02*
D03*
X0371D02*
D03*
X0381D02*
D03*
X0391D02*
D03*
X0401D02*
D03*
X0411D02*
D03*
X0421D02*
D03*
X0431D02*
D03*
X0441D02*
D03*
X0301Y033942D02*
D03*
X0311D02*
D03*
X0321D02*
D03*
X0331D02*
D03*
X0341D02*
D03*
X0351D02*
D03*
X0361D02*
D03*
X0371D02*
D03*
X0381D02*
D03*
X0391D02*
D03*
X0401D02*
D03*
X0411D02*
D03*
X0421D02*
D03*
X0431D02*
D03*
X0441D02*
D03*
D43*
X04744Y02394D02*
D03*
X01673Y04851D02*
D03*
X04752Y04839D02*
D03*
X01672Y02394D02*
D03*
D44*
X01853Y03306D02*
D03*
X01753D02*
D03*
X01853Y03006D02*
D03*
D45*
X01753D02*
D03*
D46*
Y03525D02*
D03*
D47*
X02091Y02488D02*
D03*
D48*
X01941Y02688D02*
D03*
X02191D02*
D03*
D49*
X01809Y041942D02*
D03*
Y040761D02*
D03*
Y03958D02*
D03*
Y038399D02*
D03*
Y037218D02*
D03*
D50*
X024908Y03131D02*
D03*
D51*
X022152D02*
D03*
D52*
X02493Y02663D02*
D03*
Y02763D02*
D03*
D53*
Y02563D02*
D03*
D54*
X026236Y043646D02*
D03*
Y044646D02*
D03*
Y042646D02*
D03*
Y041646D02*
D03*
Y040646D02*
D03*
Y039646D02*
D03*
Y038646D02*
D03*
X047104Y043648D02*
D03*
Y042648D02*
D03*
Y041648D02*
D03*
Y040648D02*
D03*
D55*
X026236Y045646D02*
D03*
M02*
