G04*
G04 #@! TF.GenerationSoftware,Altium Limited,Altium Designer,21.0.8 (223)*
G04*
G04 Layer_Color=65535*
%FSTAX24Y24*%
%MOIN*%
G70*
G04*
G04 #@! TF.SameCoordinates,A57ED762-F1FC-47E5-BACA-E58B220B156E*
G04*
G04*
G04 #@! TF.FilePolarity,Positive*
G04*
G01*
G75*
%ADD10C,0.0079*%
%ADD11C,0.0070*%
%ADD12C,0.0100*%
%ADD13C,0.0118*%
%ADD14C,0.1417*%
%ADD15C,0.0050*%
%ADD16C,0.0200*%
%ADD17R,0.0500X0.0250*%
G36*
X017824Y032409D02*
X017789D01*
X017655Y03261D01*
Y032409D01*
X017623D01*
Y032665D01*
X017657D01*
X017792Y032464D01*
Y032665D01*
X017824D01*
Y032409D01*
D02*
G37*
G36*
X017463Y03267D02*
X017466D01*
X017469Y032669D01*
X017474Y032668D01*
X017478Y032668D01*
X017488Y032666D01*
X017499Y032663D01*
X01751Y032658D01*
X017515Y032656D01*
X017521Y032653D01*
X017521Y032653D01*
X017522Y032652D01*
X017523Y032651D01*
X017526Y03265D01*
X017528Y032648D01*
X017531Y032646D01*
X017537Y032641D01*
X017544Y032634D01*
X017551Y032626D01*
X017558Y032616D01*
X017564Y032606D01*
Y032605D01*
X017565Y032604D01*
X017566Y032603D01*
X017566Y0326D01*
X017568Y032597D01*
X017569Y032594D01*
X01757Y03259D01*
X017572Y032586D01*
X017573Y032581D01*
X017575Y032576D01*
X017576Y03257D01*
X017577Y032564D01*
X017579Y032551D01*
X017579Y032537D01*
Y032536D01*
Y032535D01*
Y032533D01*
X017579Y03253D01*
Y032527D01*
X017579Y032523D01*
X017578Y032518D01*
X017578Y032513D01*
X017576Y032503D01*
X017573Y032491D01*
X017569Y032479D01*
X017566Y032473D01*
X017563Y032467D01*
Y032467D01*
X017563Y032466D01*
X017562Y032464D01*
X01756Y032462D01*
X017559Y032459D01*
X017557Y032457D01*
X017552Y03245D01*
X017546Y032442D01*
X017538Y032435D01*
X017529Y032427D01*
X017519Y032421D01*
X017519D01*
X017518Y03242D01*
X017516Y032419D01*
X017514Y032418D01*
X017511Y032417D01*
X017508Y032416D01*
X017505Y032414D01*
X017501Y032413D01*
X017496Y032411D01*
X017491Y03241D01*
X017481Y032408D01*
X017469Y032406D01*
X017457Y032405D01*
X017453D01*
X017451Y032405D01*
X017448D01*
X017444Y032406D01*
X01744Y032406D01*
X017435Y032407D01*
X017425Y032409D01*
X017414Y032412D01*
X017403Y032417D01*
X017398Y032419D01*
X017392Y032422D01*
X017392Y032423D01*
X017391Y032423D01*
X01739Y032424D01*
X017387Y032426D01*
X017385Y032427D01*
X017383Y032429D01*
X017376Y032435D01*
X017369Y032442D01*
X017362Y03245D01*
X017355Y032459D01*
X017349Y03247D01*
Y03247D01*
X017348Y032471D01*
X017347Y032473D01*
X017347Y032475D01*
X017346Y032478D01*
X017344Y032481D01*
X017343Y032485D01*
X017342Y032489D01*
X01734Y032494D01*
X017339Y032499D01*
X017337Y03251D01*
X017335Y032521D01*
X017334Y032534D01*
Y032534D01*
Y032535D01*
Y032537D01*
X017335Y03254D01*
Y032545D01*
X017336Y03255D01*
X017336Y032556D01*
X017337Y032563D01*
X017339Y03257D01*
X01734Y032578D01*
X017343Y032586D01*
X017346Y032594D01*
X017349Y032603D01*
X017353Y032611D01*
X017357Y032619D01*
X017363Y032627D01*
X017368Y032634D01*
X017369Y032634D01*
X01737Y032635D01*
X017372Y032637D01*
X017375Y032639D01*
X017378Y032642D01*
X017382Y032645D01*
X017387Y032648D01*
X017392Y032652D01*
X017398Y032655D01*
X017405Y032658D01*
X017412Y032661D01*
X01742Y032664D01*
X017429Y032667D01*
X017438Y032668D01*
X017447Y03267D01*
X017457Y03267D01*
X01746D01*
X017463Y03267D01*
D02*
G37*
%LPC*%
G36*
X017457Y032641D02*
X017454D01*
X017451Y03264D01*
X017448Y03264D01*
X017444Y032639D01*
X01744Y032638D01*
X017436Y032638D01*
X017426Y032635D01*
X017421Y032633D01*
X017416Y03263D01*
X01741Y032627D01*
X017405Y032624D01*
X0174Y03262D01*
X017395Y032616D01*
X017395Y032616D01*
X017394Y032615D01*
X017393Y032613D01*
X017391Y032611D01*
X017389Y032609D01*
X017387Y032605D01*
X017385Y032601D01*
X017382Y032596D01*
X01738Y032591D01*
X017377Y032585D01*
X017375Y032578D01*
X017373Y032571D01*
X017371Y032563D01*
X01737Y032553D01*
X01737Y032544D01*
X017369Y032533D01*
Y032533D01*
Y032532D01*
Y032529D01*
X01737Y032526D01*
X01737Y032522D01*
X017371Y032517D01*
X017371Y032512D01*
X017372Y032507D01*
X017375Y032495D01*
X017377Y032489D01*
X01738Y032483D01*
X017383Y032477D01*
X017386Y032471D01*
X01739Y032466D01*
X017394Y032461D01*
X017394Y03246D01*
X017395Y032459D01*
X017397Y032458D01*
X017398Y032456D01*
X017401Y032454D01*
X017404Y032452D01*
X017407Y03245D01*
X017411Y032447D01*
X017415Y032445D01*
X01742Y032442D01*
X017425Y03244D01*
X017431Y032438D01*
X017437Y032436D01*
X017443Y032435D01*
X017449Y032434D01*
X017457Y032434D01*
X017458D01*
X01746Y032434D01*
X017463D01*
X017466Y032435D01*
X01747Y032435D01*
X017474Y032436D01*
X017479Y032437D01*
X017484Y032439D01*
X017489Y032441D01*
X017494Y032442D01*
X017499Y032445D01*
X017505Y032448D01*
X01751Y032452D01*
X017515Y032456D01*
X01752Y032461D01*
X01752Y032461D01*
X017521Y032462D01*
X017522Y032463D01*
X017524Y032466D01*
X017526Y032468D01*
X017528Y032472D01*
X01753Y032476D01*
X017532Y03248D01*
X017535Y032485D01*
X017537Y032491D01*
X017539Y032498D01*
X017541Y032504D01*
X017542Y032512D01*
X017543Y03252D01*
X017544Y032528D01*
X017545Y032537D01*
Y032537D01*
Y032539D01*
Y03254D01*
Y032542D01*
X017544Y032545D01*
Y032548D01*
X017544Y032552D01*
X017543Y032556D01*
X017542Y032564D01*
X01754Y032573D01*
X017538Y032583D01*
X017534Y032591D01*
Y032592D01*
X017533Y032593D01*
X017533Y032594D01*
X017532Y032595D01*
X017529Y0326D01*
X017526Y032605D01*
X017522Y032611D01*
X017516Y032617D01*
X01751Y032623D01*
X017503Y032628D01*
X017502D01*
X017502Y032628D01*
X017501Y032629D01*
X017499Y03263D01*
X017497Y032631D01*
X017495Y032632D01*
X017489Y032634D01*
X017483Y032637D01*
X017475Y032639D01*
X017466Y03264D01*
X017457Y032641D01*
D02*
G37*
%LPD*%
D10*
X016644Y031269D02*
G03*
X016644Y031949I0J00034D01*
G01*
X016644Y029459D02*
Y031269D01*
X019431Y029459D02*
Y033659D01*
X016644Y029459D02*
X019431D01*
X016634Y033659D02*
X019431D01*
X016634Y03196D02*
Y033659D01*
X01703Y03575D02*
X02403D01*
X01703Y03475D02*
Y03575D01*
Y03475D02*
X02403D01*
Y03575D01*
X04465Y040694D02*
X044597Y040747D01*
X044493D01*
X04444Y040694D01*
Y040642D01*
X044493Y040589D01*
X044597D01*
X04465Y040537D01*
Y040484D01*
X044597Y040432D01*
X044493D01*
X04444Y040484D01*
X044755Y040747D02*
Y040432D01*
X044912D01*
X044965Y040484D01*
Y040694D01*
X044912Y040747D01*
X044755D01*
X04507Y04038D02*
X04528D01*
X045595Y040694D02*
X045542Y040747D01*
X045437D01*
X045385Y040694D01*
Y040642D01*
X045437Y040589D01*
X045542D01*
X045595Y040537D01*
Y040484D01*
X045542Y040432D01*
X045437D01*
X045385Y040484D01*
X045909Y040694D02*
X045857Y040747D01*
X045752D01*
X045699Y040694D01*
Y040484D01*
X045752Y040432D01*
X045857D01*
X045909Y040484D01*
X046014Y040747D02*
Y040432D01*
Y040537D01*
X046224Y040747D01*
X046067Y040589D01*
X046224Y040432D01*
X044388Y041737D02*
X044335Y04179D01*
X04423D01*
X044178Y041737D01*
Y041685D01*
X04423Y041632D01*
X044335D01*
X044388Y04158D01*
Y041527D01*
X044335Y041475D01*
X04423D01*
X044178Y041527D01*
X044493Y04179D02*
Y041475D01*
X04465D01*
X044702Y041527D01*
Y041737D01*
X04465Y04179D01*
X044493D01*
X044807Y041422D02*
X045017D01*
X045122Y041475D02*
Y04179D01*
X045227Y041685D01*
X045332Y04179D01*
Y041475D01*
X045437Y04179D02*
X045542D01*
X04549D01*
Y041475D01*
X045437D01*
X045542D01*
X045909Y041737D02*
X045857Y04179D01*
X045752D01*
X045699Y041737D01*
Y041685D01*
X045752Y041632D01*
X045857D01*
X045909Y04158D01*
Y041527D01*
X045857Y041475D01*
X045752D01*
X045699Y041527D01*
X046172Y04179D02*
X046067D01*
X046014Y041737D01*
Y041527D01*
X046067Y041475D01*
X046172D01*
X046224Y041527D01*
Y041737D01*
X046172Y04179D01*
X04444Y04278D02*
X044388Y042832D01*
X044283D01*
X04423Y04278D01*
Y042727D01*
X044283Y042675D01*
X044388D01*
X04444Y042622D01*
Y04257D01*
X044388Y042517D01*
X044283D01*
X04423Y04257D01*
X044545Y042832D02*
Y042517D01*
X044702D01*
X044755Y04257D01*
Y04278D01*
X044702Y042832D01*
X044545D01*
X04486Y042465D02*
X04507D01*
X045175Y042517D02*
Y042832D01*
X04528Y042727D01*
X045385Y042832D01*
Y042517D01*
X045647Y042832D02*
X045542D01*
X04549Y04278D01*
Y04257D01*
X045542Y042517D01*
X045647D01*
X045699Y04257D01*
Y04278D01*
X045647Y042832D01*
X046014Y04278D02*
X045962Y042832D01*
X045857D01*
X045804Y04278D01*
Y042727D01*
X045857Y042675D01*
X045962D01*
X046014Y042622D01*
Y04257D01*
X045962Y042517D01*
X045857D01*
X045804Y04257D01*
X046119Y042832D02*
X046224D01*
X046172D01*
Y042517D01*
X046119D01*
X046224D01*
X044965Y043822D02*
X044912Y043875D01*
X044807D01*
X044755Y043822D01*
Y04377D01*
X044807Y043717D01*
X044912D01*
X044965Y043665D01*
Y043613D01*
X044912Y04356D01*
X044807D01*
X044755Y043613D01*
X04507Y043875D02*
Y04356D01*
X045227D01*
X04528Y043613D01*
Y043822D01*
X045227Y043875D01*
X04507D01*
X045385Y043508D02*
X045595D01*
X045909Y043822D02*
X045857Y043875D01*
X045752D01*
X045699Y043822D01*
Y043613D01*
X045752Y04356D01*
X045857D01*
X045909Y043613D01*
X046224Y043822D02*
X046172Y043875D01*
X046067D01*
X046014Y043822D01*
Y04377D01*
X046067Y043717D01*
X046172D01*
X046224Y043665D01*
Y043613D01*
X046172Y04356D01*
X046067D01*
X046014Y043613D01*
X027131Y038789D02*
Y038475D01*
X027341D01*
X027656Y038789D02*
X027446D01*
Y038475D01*
X027656D01*
X027446Y038632D02*
X027551D01*
X027761Y038789D02*
Y038475D01*
X027918D01*
X027971Y038527D01*
Y038737D01*
X027918Y038789D01*
X027761D01*
X027341Y039739D02*
X027288Y039791D01*
X027184D01*
X027131Y039739D01*
Y039686D01*
X027184Y039634D01*
X027288D01*
X027341Y039581D01*
Y039529D01*
X027288Y039476D01*
X027184D01*
X027131Y039529D01*
X027656Y039739D02*
X027603Y039791D01*
X027498D01*
X027446Y039739D01*
Y039529D01*
X027498Y039476D01*
X027603D01*
X027656Y039529D01*
X027761Y039791D02*
Y039476D01*
Y039581D01*
X027971Y039791D01*
X027813Y039634D01*
X027971Y039476D01*
X027341Y04074D02*
X027288Y040793D01*
X027184D01*
X027131Y04074D01*
Y040688D01*
X027184Y040635D01*
X027288D01*
X027341Y040583D01*
Y04053D01*
X027288Y040478D01*
X027184D01*
X027131Y04053D01*
X027446Y040793D02*
Y040478D01*
X027603D01*
X027656Y04053D01*
Y04074D01*
X027603Y040793D01*
X027446D01*
X027761Y040478D02*
Y040688D01*
X027866Y040793D01*
X027971Y040688D01*
Y040478D01*
Y040635D01*
X027761D01*
X027131Y041479D02*
Y041689D01*
X027236Y041794D01*
X027341Y041689D01*
Y041479D01*
Y041637D01*
X027131D01*
X027603Y041794D02*
X027498D01*
X027446Y041742D01*
Y041532D01*
X027498Y041479D01*
X027603D01*
X027656Y041532D01*
Y041742D01*
X027603Y041794D01*
X027131Y042481D02*
Y042796D01*
X027288D01*
X027341Y042743D01*
Y042638D01*
X027288Y042586D01*
X027131D01*
X027236D02*
X027341Y042481D01*
X027656Y042796D02*
X027446D01*
Y042481D01*
X027656D01*
X027446Y042638D02*
X027551D01*
X027971Y042743D02*
X027918Y042796D01*
X027813D01*
X027761Y042743D01*
Y042691D01*
X027813Y042638D01*
X027918D01*
X027971Y042586D01*
Y042534D01*
X027918Y042481D01*
X027813D01*
X027761Y042534D01*
X028286Y042796D02*
X028076D01*
Y042481D01*
X028286D01*
X028076Y042638D02*
X028181D01*
X02839Y042796D02*
X0286D01*
X028495D01*
Y042481D01*
X027341Y043745D02*
X027288Y043798D01*
X027184D01*
X027131Y043745D01*
Y043535D01*
X027184Y043483D01*
X027288D01*
X027341Y043535D01*
X027656Y043745D02*
X027603Y043798D01*
X027498D01*
X027446Y043745D01*
Y043693D01*
X027498Y04364D01*
X027603D01*
X027656Y043588D01*
Y043535D01*
X027603Y043483D01*
X027498D01*
X027446Y043535D01*
X027341Y044747D02*
X027288Y044799D01*
X027184D01*
X027131Y044747D01*
Y044537D01*
X027184Y044484D01*
X027288D01*
X027341Y044537D01*
Y044642D01*
X027236D01*
X027446Y044484D02*
Y044799D01*
X027656Y044484D01*
Y044799D01*
X027761D02*
Y044484D01*
X027918D01*
X027971Y044537D01*
Y044747D01*
X027918Y044799D01*
X027761D01*
X027131Y045801D02*
Y045591D01*
X027236Y045486D01*
X027341Y045591D01*
Y045801D01*
X027656Y045748D02*
X027603Y045801D01*
X027498D01*
X027446Y045748D01*
Y045538D01*
X027498Y045486D01*
X027603D01*
X027656Y045538D01*
X027971Y045748D02*
X027918Y045801D01*
X027813D01*
X027761Y045748D01*
Y045538D01*
X027813Y045486D01*
X027918D01*
X027971Y045538D01*
D11*
X03261Y02783D02*
G03*
X03341Y02783I0004J0D01*
G01*
Y02983D02*
G03*
X03261Y02983I-0004J0D01*
G01*
X04494Y02806D02*
G03*
X04574Y02806I0004J0D01*
G01*
Y03006D02*
G03*
X04494Y03006I-0004J0D01*
G01*
X024323Y027675D02*
G03*
X02553Y027679I000607J-001035D01*
G01*
X01711Y02508D02*
Y02838D01*
X01641Y02508D02*
X02186D01*
X01641Y02838D02*
X02186D01*
Y02508D02*
Y02838D01*
X01641Y02508D02*
Y02838D01*
X03261Y02783D02*
Y02983D01*
X03341Y02783D02*
Y02983D01*
X03271Y02858D02*
X03326D01*
X03271Y02903D02*
X03326D01*
X03301Y02828D02*
Y02858D01*
Y02903D02*
Y02933D01*
X04534Y02856D02*
Y02886D01*
Y02931D02*
Y02961D01*
X04509Y02886D02*
X04564D01*
X04509Y02931D02*
X04564D01*
X04494Y02806D02*
Y03006D01*
X04574Y02806D02*
Y03006D01*
X02434Y02768D02*
X02552D01*
D12*
X025971Y03131D02*
G03*
X025971Y03131I-002441J0D01*
G01*
X048088Y023611D02*
Y034595D01*
X027616D02*
X048088D01*
X027616Y023611D02*
Y034595D01*
Y023611D02*
X048088D01*
X02128Y04795D02*
X02383D01*
X02128Y0489D02*
X02383D01*
X02128Y04795D02*
Y0489D01*
X02383Y04795D02*
Y0489D01*
X01643Y0347D02*
X02468D01*
X01643Y0489D02*
X02468D01*
X01643Y0347D02*
Y0489D01*
X02468Y0347D02*
Y0489D01*
X025235Y035417D02*
Y048803D01*
X048069D01*
X025653Y046229D02*
X02682D01*
X025653Y038062D02*
Y046229D01*
X02682Y038062D02*
Y046229D01*
X025653Y038062D02*
X02682D01*
X048069Y035417D02*
Y048803D01*
X025235Y035417D02*
X048069D01*
X030233Y025305D02*
Y025505D01*
X029933D01*
Y025305D01*
X030083Y025505D02*
Y025405D01*
X029933Y025205D02*
X030233D01*
X029933Y025005D01*
X030233D01*
X031256Y025528D02*
X031056D01*
X030956Y025428D01*
X031056Y025328D01*
X031256D01*
X030956Y025228D02*
X031256D01*
Y025078D01*
X031206Y025028D01*
X031106D01*
X031056Y025078D01*
Y025228D01*
X032284Y025516D02*
X032084D01*
X031984Y025416D01*
X032084Y025316D01*
X032284D01*
X031984Y025216D02*
X032284D01*
X031984Y025017D01*
X032284D01*
X033276Y025808D02*
Y025708D01*
Y025758D01*
X032976D01*
Y025808D01*
Y025708D01*
X033276Y025408D02*
Y025508D01*
X033226Y025558D01*
X033026D01*
X032976Y025508D01*
Y025408D01*
X033026Y025358D01*
X033226D01*
X033276Y025408D01*
X033226Y025258D02*
X033276Y025208D01*
Y025108D01*
X033226Y025058D01*
X033176D01*
X033126Y025108D01*
Y025158D01*
Y025108D01*
X033076Y025058D01*
X033026D01*
X032976Y025108D01*
Y025208D01*
X033026Y025258D01*
X032976Y024808D02*
X033276D01*
X033126Y024958D01*
Y024758D01*
X034323Y025851D02*
Y025751D01*
Y025801D01*
X034023D01*
Y025851D01*
Y025751D01*
X034323Y025451D02*
Y025551D01*
X034273Y025601D01*
X034073D01*
X034023Y025551D01*
Y025451D01*
X034073Y025401D01*
X034273D01*
X034323Y025451D01*
X034273Y025301D02*
X034323Y025251D01*
Y025151D01*
X034273Y025101D01*
X034223D01*
X034173Y025151D01*
Y025201D01*
Y025151D01*
X034123Y025101D01*
X034073D01*
X034023Y025151D01*
Y025251D01*
X034073Y025301D01*
X034323Y024801D02*
Y025001D01*
X034173D01*
X034223Y024901D01*
Y024851D01*
X034173Y024801D01*
X034073D01*
X034023Y024851D01*
Y024951D01*
X034073Y025001D01*
X035292Y025839D02*
Y025739D01*
Y025789D01*
X034992D01*
Y025839D01*
Y025739D01*
X035292Y025439D02*
Y025539D01*
X035242Y025589D01*
X035042D01*
X034992Y025539D01*
Y025439D01*
X035042Y025389D01*
X035242D01*
X035292Y025439D01*
X035242Y025289D02*
X035292Y025239D01*
Y025139D01*
X035242Y025089D01*
X035192D01*
X035142Y025139D01*
Y025189D01*
Y025139D01*
X035092Y025089D01*
X035042D01*
X034992Y025139D01*
Y025239D01*
X035042Y025289D01*
X034992Y02479D02*
Y024989D01*
X035192Y02479D01*
X035242D01*
X035292Y02484D01*
Y024939D01*
X035242Y024989D01*
X036327Y025839D02*
Y025739D01*
Y025789D01*
X036027D01*
Y025839D01*
Y025739D01*
X036327Y025439D02*
Y025539D01*
X036277Y025589D01*
X036077D01*
X036027Y025539D01*
Y025439D01*
X036077Y025389D01*
X036277D01*
X036327Y025439D01*
X036277Y025289D02*
X036327Y025239D01*
Y025139D01*
X036277Y025089D01*
X036227D01*
X036177Y025139D01*
Y025189D01*
Y025139D01*
X036127Y025089D01*
X036077D01*
X036027Y025139D01*
Y025239D01*
X036077Y025289D01*
X036277Y024989D02*
X036327Y024939D01*
Y02484D01*
X036277Y02479D01*
X036227D01*
X036177Y02484D01*
Y02489D01*
Y02484D01*
X036127Y02479D01*
X036077D01*
X036027Y02484D01*
Y024939D01*
X036077Y024989D01*
X03728Y025859D02*
Y025759D01*
Y025809D01*
X03698D01*
Y025859D01*
Y025759D01*
X03728Y025459D02*
Y025559D01*
X03723Y025609D01*
X03703D01*
X03698Y025559D01*
Y025459D01*
X03703Y025409D01*
X03723D01*
X03728Y025459D01*
X03698Y025109D02*
Y025309D01*
X03718Y025109D01*
X03723D01*
X03728Y025159D01*
Y025259D01*
X03723Y025309D01*
X03728Y024809D02*
Y025009D01*
X03713D01*
X03718Y024909D01*
Y024859D01*
X03713Y024809D01*
X03703D01*
X03698Y024859D01*
Y024959D01*
X03703Y025009D01*
X038252Y025835D02*
Y025735D01*
Y025785D01*
X037952D01*
Y025835D01*
Y025735D01*
X038252Y025435D02*
Y025535D01*
X038202Y025585D01*
X038002D01*
X037952Y025535D01*
Y025435D01*
X038002Y025385D01*
X038202D01*
X038252Y025435D01*
X037952Y025086D02*
Y025285D01*
X038152Y025086D01*
X038202D01*
X038252Y025135D01*
Y025235D01*
X038202Y025285D01*
X038252Y024786D02*
X038202Y024886D01*
X038102Y024986D01*
X038002D01*
X037952Y024936D01*
Y024836D01*
X038002Y024786D01*
X038052D01*
X038102Y024836D01*
Y024986D01*
X039307Y025792D02*
Y025692D01*
Y025742D01*
X039007D01*
Y025792D01*
Y025692D01*
X039307Y025392D02*
Y025492D01*
X039257Y025542D01*
X039057D01*
X039007Y025492D01*
Y025392D01*
X039057Y025342D01*
X039257D01*
X039307Y025392D01*
X039007Y025042D02*
Y025242D01*
X039207Y025042D01*
X039257D01*
X039307Y025092D01*
Y025192D01*
X039257Y025242D01*
X039307Y024942D02*
Y024742D01*
X039257D01*
X039057Y024942D01*
X039007D01*
X040319Y025792D02*
Y025692D01*
Y025742D01*
X040019D01*
Y025792D01*
Y025692D01*
X040319Y025392D02*
Y025492D01*
X040269Y025542D01*
X040069D01*
X040019Y025492D01*
Y025392D01*
X040069Y025342D01*
X040269D01*
X040319Y025392D01*
X040019Y025242D02*
Y025142D01*
Y025192D01*
X040319D01*
X040269Y025242D01*
X040019Y024842D02*
X040319D01*
X040169Y024992D01*
Y024792D01*
X041221Y025835D02*
Y025735D01*
Y025785D01*
X040921D01*
Y025835D01*
Y025735D01*
X041221Y025435D02*
Y025535D01*
X041171Y025585D01*
X040971D01*
X040921Y025535D01*
Y025435D01*
X040971Y025385D01*
X041171D01*
X041221Y025435D01*
X040921Y025285D02*
Y025185D01*
Y025235D01*
X041221D01*
X041171Y025285D01*
X040921Y024836D02*
Y025036D01*
X041121Y024836D01*
X041171D01*
X041221Y024886D01*
Y024986D01*
X041171Y025036D01*
X04224Y025745D02*
Y025645D01*
Y025695D01*
X041941D01*
Y025745D01*
Y025645D01*
X04224Y025345D02*
Y025445D01*
X04219Y025495D01*
X041991D01*
X041941Y025445D01*
Y025345D01*
X041991Y025295D01*
X04219D01*
X04224Y025345D01*
X041941Y025195D02*
Y025095D01*
Y025145D01*
X04224D01*
X04219Y025195D01*
Y024945D02*
X04224Y024895D01*
Y024795D01*
X04219Y024745D01*
X04214D01*
X042091Y024795D01*
Y024845D01*
Y024795D01*
X042041Y024745D01*
X041991D01*
X041941Y024795D01*
Y024895D01*
X041991Y024945D01*
X043187Y025368D02*
X043237Y025418D01*
Y025518D01*
X043187Y025568D01*
X042987D01*
X042937Y025518D01*
Y025418D01*
X042987Y025368D01*
X043087D01*
Y025468D01*
X042937Y025268D02*
X043237D01*
X042937Y025068D01*
X043237D01*
Y024968D02*
X042937D01*
Y024818D01*
X042987Y024768D01*
X043187D01*
X043237Y024818D01*
Y024968D01*
X044244Y025508D02*
X044044D01*
X043944Y025409D01*
X044044Y025309D01*
X044244D01*
Y025209D02*
Y025109D01*
Y025159D01*
X043944D01*
Y025209D01*
Y025109D01*
Y024959D02*
X044244D01*
X043944Y024759D01*
X044244D01*
X030364Y033197D02*
Y033064D01*
Y033131D01*
X029964D01*
Y033197D01*
Y033064D01*
X030364Y032664D02*
Y032798D01*
X030297Y032864D01*
X030031D01*
X029964Y032798D01*
Y032664D01*
X030031Y032598D01*
X030297D01*
X030364Y032664D01*
X029964Y032198D02*
Y032464D01*
X030231Y032198D01*
X030297D01*
X030364Y032264D01*
Y032398D01*
X030297Y032464D01*
Y032064D02*
X030364Y031998D01*
Y031865D01*
X030297Y031798D01*
X030231D01*
X030164Y031865D01*
Y031931D01*
Y031865D01*
X030097Y031798D01*
X030031D01*
X029964Y031865D01*
Y031998D01*
X030031Y032064D01*
X031333Y033245D02*
Y033111D01*
Y033178D01*
X030933D01*
Y033245D01*
Y033111D01*
X031333Y032712D02*
Y032845D01*
X031266Y032911D01*
X030999D01*
X030933Y032845D01*
Y032712D01*
X030999Y032645D01*
X031266D01*
X031333Y032712D01*
X030933Y032245D02*
Y032512D01*
X031199Y032245D01*
X031266D01*
X031333Y032312D01*
Y032445D01*
X031266Y032512D01*
X030933Y031845D02*
Y032112D01*
X031199Y031845D01*
X031266D01*
X031333Y031912D01*
Y032045D01*
X031266Y032112D01*
X032329Y033197D02*
Y033064D01*
Y033131D01*
X031929D01*
Y033197D01*
Y033064D01*
X032329Y032664D02*
Y032798D01*
X032262Y032864D01*
X031995D01*
X031929Y032798D01*
Y032664D01*
X031995Y032598D01*
X032262D01*
X032329Y032664D01*
X031929Y032464D02*
Y032331D01*
Y032398D01*
X032329D01*
X032262Y032464D01*
X033344Y033182D02*
Y033048D01*
Y033115D01*
X032944D01*
Y033182D01*
Y033048D01*
X033344Y032649D02*
Y032782D01*
X033278Y032848D01*
X033011D01*
X032944Y032782D01*
Y032649D01*
X033011Y032582D01*
X033278D01*
X033344Y032649D01*
X033278Y032449D02*
X033344Y032382D01*
Y032249D01*
X033278Y032182D01*
X033211D01*
X033144Y032249D01*
Y032315D01*
Y032249D01*
X033078Y032182D01*
X033011D01*
X032944Y032249D01*
Y032382D01*
X033011Y032449D01*
X034325Y033292D02*
Y033159D01*
Y033225D01*
X033925D01*
Y033292D01*
Y033159D01*
X034325Y032759D02*
Y032892D01*
X034258Y032959D01*
X033991D01*
X033925Y032892D01*
Y032759D01*
X033991Y032692D01*
X034258D01*
X034325Y032759D01*
X033925Y032292D02*
Y032559D01*
X034191Y032292D01*
X034258D01*
X034325Y032359D01*
Y032492D01*
X034258Y032559D01*
X033925Y032159D02*
Y032026D01*
Y032092D01*
X034325D01*
X034258Y032159D01*
X03534Y033323D02*
Y03319D01*
Y033257D01*
X034941D01*
Y033323D01*
Y03319D01*
X03534Y03279D02*
Y032924D01*
X035274Y03299D01*
X035007D01*
X034941Y032924D01*
Y03279D01*
X035007Y032724D01*
X035274D01*
X03534Y03279D01*
X034941Y03259D02*
Y032457D01*
Y032524D01*
X03534D01*
X035274Y03259D01*
X035007Y032257D02*
X034941Y03219D01*
Y032057D01*
X035007Y031991D01*
X035274D01*
X03534Y032057D01*
Y03219D01*
X035274Y032257D01*
X035207D01*
X03514Y03219D01*
Y031991D01*
X036309Y033308D02*
Y033174D01*
Y033241D01*
X035909D01*
Y033308D01*
Y033174D01*
X036309Y032775D02*
Y032908D01*
X036242Y032974D01*
X035976D01*
X035909Y032908D01*
Y032775D01*
X035976Y032708D01*
X036242D01*
X036309Y032775D01*
X035909Y032575D02*
Y032441D01*
Y032508D01*
X036309D01*
X036242Y032575D01*
Y032241D02*
X036309Y032175D01*
Y032041D01*
X036242Y031975D01*
X036176D01*
X036109Y032041D01*
X036042Y031975D01*
X035976D01*
X035909Y032041D01*
Y032175D01*
X035976Y032241D01*
X036042D01*
X036109Y032175D01*
X036176Y032241D01*
X036242D01*
X036109Y032175D02*
Y032041D01*
X037415Y033245D02*
Y033111D01*
Y033178D01*
X037015D01*
Y033245D01*
Y033111D01*
X037415Y032712D02*
Y032845D01*
X037349Y032911D01*
X037082D01*
X037015Y032845D01*
Y032712D01*
X037082Y032645D01*
X037349D01*
X037415Y032712D01*
Y032245D02*
Y032512D01*
X037215D01*
X037282Y032378D01*
Y032312D01*
X037215Y032245D01*
X037082D01*
X037015Y032312D01*
Y032445D01*
X037082Y032512D01*
X038321Y03326D02*
Y033127D01*
Y033194D01*
X037921D01*
Y03326D01*
Y033127D01*
X038321Y032727D02*
Y032861D01*
X038254Y032927D01*
X037988D01*
X037921Y032861D01*
Y032727D01*
X037988Y032661D01*
X038254D01*
X038321Y032727D01*
X037921Y032527D02*
Y032394D01*
Y032461D01*
X038321D01*
X038254Y032527D01*
X038321Y032194D02*
Y031928D01*
X038254D01*
X037988Y032194D01*
X037921D01*
X039364Y033292D02*
Y033159D01*
Y033225D01*
X038964D01*
Y033292D01*
Y033159D01*
X039364Y032759D02*
Y032892D01*
X039297Y032959D01*
X039031D01*
X038964Y032892D01*
Y032759D01*
X039031Y032692D01*
X039297D01*
X039364Y032759D01*
X038964Y032559D02*
Y032426D01*
Y032492D01*
X039364D01*
X039297Y032559D01*
X039364Y031959D02*
X039297Y032092D01*
X039164Y032226D01*
X039031D01*
X038964Y032159D01*
Y032026D01*
X039031Y031959D01*
X039097D01*
X039164Y032026D01*
Y032226D01*
X040364Y033233D02*
Y0331D01*
Y033166D01*
X039964D01*
Y033233D01*
Y0331D01*
X040364Y0327D02*
Y032833D01*
X040297Y0329D01*
X040031D01*
X039964Y032833D01*
Y0327D01*
X040031Y032633D01*
X040297D01*
X040364Y0327D01*
X039964Y0323D02*
X040364D01*
X040164Y0325D01*
Y032233D01*
X041285Y033186D02*
Y033052D01*
Y033119D01*
X040885D01*
Y033186D01*
Y033052D01*
X041285Y032652D02*
Y032786D01*
X041219Y032852D01*
X040952D01*
X040885Y032786D01*
Y032652D01*
X040952Y032586D01*
X041219D01*
X041285Y032652D01*
X040885Y032186D02*
Y032453D01*
X041152Y032186D01*
X041219D01*
X041285Y032253D01*
Y032386D01*
X041219Y032453D01*
X042281Y033264D02*
Y033131D01*
Y033198D01*
X041881D01*
Y033264D01*
Y033131D01*
X042281Y032731D02*
Y032865D01*
X042215Y032931D01*
X041948D01*
X041881Y032865D01*
Y032731D01*
X041948Y032665D01*
X042215D01*
X042281Y032731D01*
X041881Y032531D02*
Y032398D01*
Y032465D01*
X042281D01*
X042215Y032531D01*
X042281Y031932D02*
Y032198D01*
X042081D01*
X042148Y032065D01*
Y031998D01*
X042081Y031932D01*
X041948D01*
X041881Y031998D01*
Y032131D01*
X041948Y032198D01*
X043199Y032919D02*
X043266Y032986D01*
Y033119D01*
X043199Y033186D01*
X042932D01*
X042866Y033119D01*
Y032986D01*
X042932Y032919D01*
X043066D01*
Y033052D01*
X042866Y032786D02*
X043266D01*
X042866Y032519D01*
X043266D01*
Y032386D02*
X042866D01*
Y032186D01*
X042932Y032119D01*
X043199D01*
X043266Y032186D01*
Y032386D01*
X044214Y033211D02*
X044281Y033145D01*
Y033011D01*
X044214Y032945D01*
X044148D01*
X044081Y033011D01*
Y033078D01*
Y033011D01*
X044014Y032945D01*
X043948D01*
X043881Y033011D01*
Y033145D01*
X043948Y033211D01*
X044281Y032811D02*
X044014D01*
X043881Y032678D01*
X044014Y032545D01*
X044281D01*
X044214Y032412D02*
X044281Y032345D01*
Y032212D01*
X044214Y032145D01*
X044148D01*
X044081Y032212D01*
Y032278D01*
Y032212D01*
X044014Y032145D01*
X043948D01*
X043881Y032212D01*
Y032345D01*
X043948Y032412D01*
X01648Y05445D02*
X01688Y05405D01*
X01648D02*
X01688Y05445D01*
X01648Y05425D02*
X01688D01*
X01668Y05405D02*
Y05445D01*
D13*
X027178Y038155D02*
G03*
X027178Y038155I-000071J0D01*
G01*
D14*
X026416Y036598D02*
D03*
X046888D02*
D03*
Y047622D02*
D03*
X026416D02*
D03*
D15*
X018284Y030809D02*
Y032309D01*
X018784D01*
Y030809D02*
Y032309D01*
X018284Y030809D02*
X018784D01*
X017284D02*
Y032309D01*
X017784D01*
Y030809D02*
Y032309D01*
X017284Y030809D02*
X017784D01*
X017154Y034533D02*
Y034333D01*
X017287D01*
X017387D02*
X017453D01*
X017487Y034367D01*
Y034433D01*
X017453Y034467D01*
X017387D01*
X017354Y034433D01*
Y034367D01*
X017387Y034333D01*
X017553D02*
Y034533D01*
X017653D01*
X017687Y0345D01*
Y034433D01*
X017653Y0344D01*
X017553D01*
X01762D02*
X017687Y034333D01*
X017787Y034467D02*
X017853D01*
X017887Y034433D01*
Y034333D01*
X017787D01*
X017753Y034367D01*
X017787Y0344D01*
X017887D01*
X017953Y0343D02*
X018087D01*
X018287Y034533D02*
X018153D01*
Y034333D01*
X018287D01*
X018153Y034433D02*
X01822D01*
X018353Y0345D02*
X018387Y034533D01*
X018453D01*
X018486Y0345D01*
Y034467D01*
X018453Y034433D01*
X01842D01*
X018453D01*
X018486Y0344D01*
Y034367D01*
X018453Y034333D01*
X018387D01*
X018353Y034367D01*
X018686Y034333D02*
X018553D01*
X018686Y034467D01*
Y0345D01*
X018653Y034533D01*
X018586D01*
X018553Y0345D01*
X017374Y029267D02*
X01734Y0293D01*
X017274D01*
X01724Y029267D01*
Y029233D01*
X017274Y0292D01*
X01734D01*
X017374Y029167D01*
Y029133D01*
X01734Y0291D01*
X017274D01*
X01724Y029133D01*
X01744Y0293D02*
Y0291D01*
X017507Y029167D01*
X017573Y0291D01*
Y0293D01*
X01784D02*
Y0291D01*
X01794D01*
X017973Y029133D01*
Y029267D01*
X01794Y0293D01*
X01784D01*
X01804D02*
X018107D01*
X018073D01*
Y0291D01*
X01804D01*
X018107D01*
X018207D02*
Y0293D01*
X018307D01*
X01834Y029267D01*
Y0292D01*
X018307Y029167D01*
X018207D01*
X018407Y0292D02*
X01854D01*
X01874Y0291D02*
X018606D01*
X01874Y029233D01*
Y029267D01*
X018706Y0293D01*
X01864D01*
X018606Y029267D01*
X02495Y03388D02*
Y03368D01*
X02505D01*
X025083Y033713D01*
Y033747D01*
X02505Y03378D01*
X02495D01*
X02505D01*
X025083Y033813D01*
Y033847D01*
X02505Y03388D01*
X02495D01*
X02515Y033813D02*
Y033713D01*
X025183Y03368D01*
X025283D01*
Y033813D01*
X02535D02*
X025483D01*
X02535Y03368D01*
X025483D01*
X02555Y033813D02*
X025683D01*
X02555Y03368D01*
X025683D01*
X02585D02*
X025783D01*
X02575Y033713D01*
Y03378D01*
X025783Y033813D01*
X02585D01*
X025883Y03378D01*
Y033747D01*
X02575D01*
X02595Y033813D02*
Y03368D01*
Y033747D01*
X025983Y03378D01*
X026016Y033813D01*
X02605D01*
X024683Y02508D02*
Y02488D01*
X024817D01*
X025017Y02508D02*
X024883D01*
Y02488D01*
X025017D01*
X024883Y02498D02*
X02495D01*
X025083Y02508D02*
Y02488D01*
X025183D01*
X025217Y024913D01*
Y025047D01*
X025183Y02508D01*
X025083D01*
X01881Y0245D02*
X018877D01*
X018843D01*
Y0247D01*
X01881Y024667D01*
X01911Y0245D02*
X018977D01*
X01911Y024633D01*
Y024667D01*
X019077Y0247D01*
X01901D01*
X018977Y024667D01*
X019177Y0247D02*
Y024567D01*
X019243Y0245D01*
X01931Y024567D01*
Y0247D01*
X019577D02*
Y0245D01*
X019677D01*
X01971Y024533D01*
Y024667D01*
X019677Y0247D01*
X019577D01*
X01991Y024667D02*
X019877Y0247D01*
X01981D01*
X019777Y024667D01*
Y024533D01*
X01981Y0245D01*
X019877D01*
X01991Y024533D01*
X027757Y023482D02*
X027624D01*
Y023282D01*
X027757D01*
X027624Y023382D02*
X027691D01*
X027957Y023449D02*
X027924Y023482D01*
X027857D01*
X027824Y023449D01*
Y023415D01*
X027857Y023382D01*
X027924D01*
X027957Y023349D01*
Y023315D01*
X027924Y023282D01*
X027857D01*
X027824Y023315D01*
X028024Y023282D02*
Y023482D01*
X028124D01*
X028157Y023449D01*
Y023382D01*
X028124Y023349D01*
X028024D01*
X028224Y023449D02*
X028257Y023482D01*
X028324D01*
X028357Y023449D01*
Y023415D01*
X028324Y023382D01*
X02829D01*
X028324D01*
X028357Y023349D01*
Y023315D01*
X028324Y023282D01*
X028257D01*
X028224Y023315D01*
X028557Y023282D02*
X028424D01*
X028557Y023415D01*
Y023449D01*
X028524Y023482D01*
X028457D01*
X028424Y023449D01*
X028823Y023482D02*
Y023282D01*
X028923D01*
X028957Y023315D01*
Y023449D01*
X028923Y023482D01*
X028823D01*
X029123Y023282D02*
X029057D01*
X029023Y023315D01*
Y023382D01*
X029057Y023415D01*
X029123D01*
X029157Y023382D01*
Y023349D01*
X029023D01*
X029223Y023415D02*
X02929Y023282D01*
X029357Y023415D01*
X029423Y023482D02*
Y023282D01*
Y023349D01*
X029557Y023482D01*
X029457Y023382D01*
X029557Y023282D01*
X029623D02*
X02969D01*
X029657D01*
Y023415D01*
X029623D01*
X029823Y023449D02*
Y023415D01*
X02979D01*
X029857D01*
X029823D01*
Y023315D01*
X029857Y023282D01*
X030156Y023449D02*
X03019Y023482D01*
X030256D01*
X03029Y023449D01*
Y023415D01*
X030256Y023382D01*
X030223D01*
X030256D01*
X03029Y023349D01*
Y023315D01*
X030256Y023282D01*
X03019D01*
X030156Y023315D01*
X030356Y023449D02*
X03039Y023482D01*
X030456D01*
X03049Y023449D01*
Y023315D01*
X030456Y023282D01*
X03039D01*
X030356Y023315D01*
Y023449D01*
X030556Y023282D02*
Y023482D01*
X030656D01*
X03069Y023449D01*
Y023382D01*
X030656Y023349D01*
X030556D01*
X030756Y023282D02*
X030823D01*
X03079D01*
Y023415D01*
X030756D01*
X030923Y023282D02*
Y023415D01*
X031023D01*
X031056Y023382D01*
Y023282D01*
X025287Y03522D02*
X02542D01*
X025354D01*
Y03502D01*
X02562Y03522D02*
X025487D01*
Y03512D01*
X025554D01*
X025487D01*
Y03502D01*
X025687Y03522D02*
X02582D01*
X025754D01*
Y03502D01*
X026087D02*
X026153D01*
X02612D01*
Y03522D01*
X026087Y035187D01*
X026253Y03502D02*
Y035053D01*
X026287D01*
Y03502D01*
X026253D01*
X02642Y035187D02*
X026453Y03522D01*
X02652D01*
X026553Y035187D01*
Y035153D01*
X02652Y03512D01*
X026553Y035087D01*
Y035053D01*
X02652Y03502D01*
X026453D01*
X02642Y035053D01*
Y035087D01*
X026453Y03512D01*
X02642Y035153D01*
Y035187D01*
X026453Y03512D02*
X02652D01*
X026953Y035187D02*
X02692Y03522D01*
X026853D01*
X02682Y035187D01*
Y035153D01*
X026853Y03512D01*
X02692D01*
X026953Y035087D01*
Y035053D01*
X02692Y03502D01*
X026853D01*
X02682Y035053D01*
X02702Y03522D02*
X027153D01*
X027087D01*
Y03502D01*
X02722Y03522D02*
X027353D01*
Y035187D01*
X02722Y035053D01*
Y03502D01*
X02742Y03522D02*
X027553D01*
Y035187D01*
X02742Y035053D01*
Y03502D01*
X02762Y035187D02*
X027653Y03522D01*
X02772D01*
X027753Y035187D01*
Y035153D01*
X02772Y03512D01*
X027686D01*
X02772D01*
X027753Y035087D01*
Y035053D01*
X02772Y03502D01*
X027653D01*
X02762Y035053D01*
X027953Y03522D02*
X02782D01*
Y03512D01*
X027886Y035153D01*
X02792D01*
X027953Y03512D01*
Y035053D01*
X02792Y03502D01*
X027853D01*
X02782Y035053D01*
D16*
X023614Y032227D02*
X02378Y03206D01*
X024113D01*
X02428Y032227D01*
Y032394D01*
X024113Y03256D01*
X02378D01*
X023614Y032727D01*
Y032893D01*
X02378Y03306D01*
X024113D01*
X02428Y032893D01*
X02328Y03306D02*
Y03206D01*
X02278D01*
X022614Y032227D01*
Y03256D01*
X02278Y032727D01*
X02328D01*
X02688Y03146D02*
X026347D01*
X026613Y031194D02*
Y031727D01*
D17*
X018534Y031184D02*
D03*
X017534D02*
D03*
M02*
