M48
;Layer_Color=9474304
;FILE_FORMAT=2:4
INCH,LZ
;TYPE=PLATED
T1F00S00C0.0280
T2F00S00C0.0310
T3F00S00C0.0320
T4F00S00C0.0354
T5F00S00C0.0390
T6F00S00C0.0394
T7F00S00C0.0400
T8F00S00C0.0472
T10F00S00C0.0591
T11F00S00C0.0700
T12F00S00C0.1181
%
T01
X0199Y03387
X02361Y03742
X03014Y03833
X029356Y032104
X04109Y03936
T02
X03301Y02783
Y02983
X04534Y03006
Y02806
T03
X02493Y02563
Y02663
Y02763
T04
X01753Y03006
X01853
Y03306
X01753
T05
X03589Y02779
X03689
X03789
T06
X0321Y02419
X0331
X0341
X0351
X0361
X0371
X0381
X0391
X0401
X0411
X0421
X0431
X0441
X0311
X0301
Y033942
X0311
X0321
X0331
X0341
X0351
X0361
X0371
X0381
X0391
X0401
X0411
X0421
X0431
X0441
T07
X01753Y03525
X01853
X01953
X02053
X02153
X02253
X02353
T08
X022152Y03131
X024908
X026236Y038646
Y039646
Y040646
Y041646
Y042646
Y043646
Y044646
Y045646
X047104Y043648
Y042648
Y041648
Y040648
T10
X01809Y037218
Y038399
Y03958
Y040761
Y041942
T11
X03689Y03009
T12
X04744Y02394
X01672
X04752Y04839
X01673Y04851
M30
