G04*
G04 #@! TF.GenerationSoftware,Altium Limited,Altium Designer,21.0.8 (223)*
G04*
G04 Layer_Color=32896*
%FSTAX24Y24*%
%MOIN*%
G70*
G04*
G04 #@! TF.SameCoordinates,A57ED762-F1FC-47E5-BACA-E58B220B156E*
G04*
G04*
G04 #@! TF.FilePolarity,Positive*
G04*
G01*
G75*
%ADD11C,0.0070*%
%ADD12C,0.0100*%
%ADD15C,0.0050*%
%ADD67C,0.0080*%
%ADD68C,0.0040*%
%ADD69C,0.0157*%
%ADD70R,0.2165X0.0837*%
%ADD71R,0.3990X0.0360*%
D11*
X0349Y02872D02*
X034905Y02879D01*
X03889D01*
X03865Y02703D02*
X03888D01*
X03889Y02704D01*
Y02909D01*
X0349D02*
X03889D01*
X0349Y02704D02*
Y02909D01*
X03489Y02703D02*
X0349Y02704D01*
X03489Y02703D02*
X03865D01*
D12*
X03872Y0274D02*
G03*
X03872Y0274I-00013J0D01*
G01*
X025992Y03131D02*
G03*
X025992Y03131I-002452J0D01*
G01*
X016634Y02944D02*
Y033653D01*
Y02944D02*
X019439D01*
Y033653D01*
X016634D02*
X019439D01*
X019165Y036692D02*
Y042442D01*
X017015Y036692D02*
X019165D01*
X017015D02*
Y042442D01*
X019165D01*
D15*
X044438Y02914D02*
G03*
X044438Y02914I-001998J0D01*
G01*
X04245Y031138D02*
G03*
X04244Y031138I-00001J-001604D01*
G01*
X03002Y026972D02*
G03*
X03003Y026972I00001J001604D01*
G01*
X032028Y02897D02*
G03*
X032028Y02897I-001998J0D01*
G01*
X04244Y027083D02*
X043483D01*
X044074Y027093D02*
X044468Y027486D01*
X04244Y027083D02*
X043739D01*
X04244D02*
X044074D01*
X04244D02*
X044468D01*
Y031138D01*
X04245D02*
X044468D01*
X042135D02*
Y031404D01*
X042745Y031138D02*
Y031404D01*
X042135Y026827D02*
Y027083D01*
X041397D02*
X04244D01*
X040412Y027486D02*
X040806Y027093D01*
X042745Y026827D02*
Y027083D01*
X041141D02*
X04244D01*
X040806D02*
X04244D01*
X040412D02*
X04244D01*
X040412D02*
Y031138D01*
X04243D01*
X04643Y02781D02*
Y02921D01*
X0471D01*
Y02781D02*
Y02921D01*
X04643Y02781D02*
X0471D01*
X03004Y026972D02*
X032058D01*
Y031027D01*
X03003D02*
X032058D01*
X03003D02*
X031664D01*
X03003D02*
X031329D01*
X029725D02*
Y031283D01*
X031664Y031017D02*
X032058Y030624D01*
X03003Y031027D02*
X031073D01*
X030335D02*
Y031283D01*
X029725Y026706D02*
Y026972D01*
X030335Y026706D02*
Y026972D01*
X028002D02*
X03002D01*
X028002D02*
Y031027D01*
X03003D01*
X028396D02*
X03003D01*
X028731D02*
X03003D01*
X028002Y030624D02*
X028396Y031017D01*
X028987Y031027D02*
X03003D01*
X02399Y0255D02*
Y0269D01*
X02332Y0255D02*
X02399D01*
X02332D02*
Y0269D01*
X02399D01*
X01887Y03087D02*
Y03227D01*
X0182Y03087D02*
X01887D01*
X0182D02*
Y03227D01*
X01887D01*
X01787Y03087D02*
Y03227D01*
X0172Y03087D02*
X01787D01*
X0172D02*
Y03227D01*
X01787D01*
X029553Y03134D02*
X029486D01*
X02952D01*
Y03154D01*
X029553Y031507D01*
X029386D02*
X029353Y03154D01*
X029286D01*
X029253Y031507D01*
Y031373D01*
X029286Y03134D01*
X029353D01*
X029386Y031373D01*
Y031507D01*
X029186D02*
X029153Y03154D01*
X029087D01*
X029053Y031507D01*
Y031373D01*
X029087Y03134D01*
X029153D01*
X029186Y031373D01*
Y031507D01*
X028987D02*
X028953Y03154D01*
X028887D01*
X028853Y031507D01*
Y031373D01*
X028887Y03134D01*
X028953D01*
X028987Y031373D01*
Y031507D01*
X028787Y031473D02*
Y031373D01*
X028753Y03134D01*
X028653D01*
Y031473D01*
X028453Y03154D02*
X028587D01*
Y03144D01*
X02852D01*
X028587D01*
Y03134D01*
X028387D02*
X028253Y031473D01*
X028187Y03134D02*
X02812D01*
X028153D01*
Y03154D01*
X028187Y031507D01*
X027887Y03154D02*
X027954Y031507D01*
X02802Y03144D01*
Y031373D01*
X027987Y03134D01*
X02792D01*
X027887Y031373D01*
Y031407D01*
X02792Y03144D01*
X02802D01*
X02782Y03154D02*
Y031407D01*
X027754Y03134D01*
X027687Y031407D01*
Y03154D01*
X047757Y03045D02*
Y03025D01*
X047623D01*
X047423Y03045D02*
X047557D01*
Y03025D01*
X047423D01*
X047557Y03035D02*
X04749D01*
X047357Y03045D02*
Y03025D01*
X047257D01*
X047223Y030283D01*
Y030417D01*
X047257Y03045D01*
X047357D01*
X047937Y028567D02*
X047903Y0286D01*
X047837D01*
X047803Y028567D01*
Y028533D01*
X047837Y0285D01*
X04787D01*
X047837D01*
X047803Y028467D01*
Y028433D01*
X047837Y0284D01*
X047903D01*
X047937Y028433D01*
X047737Y028567D02*
X047703Y0286D01*
X047637D01*
X047603Y028567D01*
Y028533D01*
X047637Y0285D01*
X04767D01*
X047637D01*
X047603Y028467D01*
Y028433D01*
X047637Y0284D01*
X047703D01*
X047737Y028433D01*
X047537Y028567D02*
X047503Y0286D01*
X047437D01*
X047403Y028567D01*
Y028433D01*
X047437Y0284D01*
X047503D01*
X047537Y028433D01*
Y028567D01*
X047337Y0284D02*
Y0286D01*
X047237D01*
X047203Y028567D01*
Y0285D01*
X047237Y028467D01*
X047337D01*
X04727D02*
X047203Y0284D01*
X042063Y03145D02*
X041996D01*
X04203D01*
Y03165D01*
X042063Y031617D01*
X041896D02*
X041863Y03165D01*
X041796D01*
X041763Y031617D01*
Y031483D01*
X041796Y03145D01*
X041863D01*
X041896Y031483D01*
Y031617D01*
X041696D02*
X041663Y03165D01*
X041597D01*
X041563Y031617D01*
Y031483D01*
X041597Y03145D01*
X041663D01*
X041696Y031483D01*
Y031617D01*
X041497D02*
X041463Y03165D01*
X041397D01*
X041363Y031617D01*
Y031483D01*
X041397Y03145D01*
X041463D01*
X041497Y031483D01*
Y031617D01*
X041297Y031583D02*
Y031483D01*
X041263Y03145D01*
X041163D01*
Y031583D01*
X040963Y03165D02*
X041097D01*
Y03155D01*
X04103D01*
X041097D01*
Y03145D01*
X040897D02*
X040763Y031583D01*
X040697Y03145D02*
X04063D01*
X040663D01*
Y03165D01*
X040697Y031617D01*
X040397Y03165D02*
X040464Y031617D01*
X04053Y03155D01*
Y031483D01*
X040497Y03145D01*
X04043D01*
X040397Y031483D01*
Y031517D01*
X04043Y03155D01*
X04053D01*
X04033Y03165D02*
Y031517D01*
X040264Y03145D01*
X040197Y031517D01*
Y03165D01*
X03346Y02872D02*
X033393D01*
X033427D01*
Y02892D01*
X03346Y028887D01*
X033293D02*
X03326Y02892D01*
X033193D01*
X03316Y028887D01*
Y028753D01*
X033193Y02872D01*
X03326D01*
X033293Y028753D01*
Y028887D01*
X033093D02*
X03306Y02892D01*
X032993D01*
X03296Y028887D01*
Y028753D01*
X032993Y02872D01*
X03306D01*
X033093Y028753D01*
Y028887D01*
X032893Y02872D02*
Y028853D01*
X032793D01*
X03276Y02882D01*
Y02872D01*
X03256Y02892D02*
X032693D01*
Y02882D01*
X032627D01*
X032693D01*
Y02872D01*
X0458Y02901D02*
X045733D01*
X045767D01*
Y02921D01*
X0458Y029177D01*
X045633D02*
X0456Y02921D01*
X045533D01*
X0455Y029177D01*
Y029043D01*
X045533Y02901D01*
X0456D01*
X045633Y029043D01*
Y029177D01*
X045433D02*
X0454Y02921D01*
X045333D01*
X0453Y029177D01*
Y029043D01*
X045333Y02901D01*
X0454D01*
X045433Y029043D01*
Y029177D01*
X045233Y02901D02*
Y029143D01*
X045133D01*
X0451Y02911D01*
Y02901D01*
X0449Y02921D02*
X045033D01*
Y02911D01*
X044967D01*
X045033D01*
Y02901D01*
X017053Y0315D02*
X016987D01*
X01702D01*
Y0317D01*
X017053Y031667D01*
X016887D02*
X016853Y0317D01*
X016787D01*
X016753Y031667D01*
Y031533D01*
X016787Y0315D01*
X016853D01*
X016887Y031533D01*
Y031667D01*
X016687Y0315D02*
Y0317D01*
Y031567D02*
X016587Y031633D01*
X016687Y031567D02*
X016587Y0315D01*
X023137Y025823D02*
X02317Y025857D01*
Y025923D01*
X023137Y025957D01*
X023103D01*
X02307Y025923D01*
Y02589D01*
Y025923D01*
X023037Y025957D01*
X023003D01*
X02297Y025923D01*
Y025857D01*
X023003Y025823D01*
X023137Y026023D02*
X02317Y026057D01*
Y026123D01*
X023137Y026157D01*
X023103D01*
X02307Y026123D01*
Y02609D01*
Y026123D01*
X023037Y026157D01*
X023003D01*
X02297Y026123D01*
Y026057D01*
X023003Y026023D01*
X023137Y026223D02*
X02317Y026257D01*
Y026323D01*
X023137Y026357D01*
X023003D01*
X02297Y026323D01*
Y026257D01*
X023003Y026223D01*
X023137D01*
X02297Y026423D02*
X02317D01*
Y026523D01*
X023137Y026557D01*
X02307D01*
X023037Y026523D01*
Y026423D01*
Y02649D02*
X02297Y026557D01*
X019493Y03148D02*
X019427D01*
X01946D01*
Y03168D01*
X019493Y031647D01*
X019327D02*
X019293Y03168D01*
X019227D01*
X019193Y031647D01*
Y031513D01*
X019227Y03148D01*
X019293D01*
X019327Y031513D01*
Y031647D01*
X019127Y03148D02*
Y03168D01*
Y031547D02*
X019027Y031613D01*
X019127Y031547D02*
X019027Y03148D01*
X019557Y03927D02*
X01959Y039237D01*
Y03917D01*
X019557Y039137D01*
X019523D01*
X01949Y03917D01*
Y039237D01*
X019457Y03927D01*
X019423D01*
X01939Y039237D01*
Y03917D01*
X019423Y039137D01*
X019523Y039337D02*
X019423D01*
X01939Y03937D01*
X019423Y039403D01*
X01939Y039437D01*
X019423Y03947D01*
X019523D01*
X01939Y039537D02*
Y039603D01*
Y03957D01*
X019523D01*
Y039537D01*
X019557Y039737D02*
X019523D01*
Y039703D01*
Y03977D01*
Y039737D01*
X019423D01*
X01939Y03977D01*
X019523Y040003D02*
Y039903D01*
X01949Y03987D01*
X019423D01*
X01939Y039903D01*
Y040003D01*
X01959Y04007D02*
X01939D01*
X01949D01*
X019523Y040103D01*
Y04017D01*
X01949Y040203D01*
X01939D01*
X037546Y03143D02*
Y03123D01*
X037413D01*
X037347D02*
Y03143D01*
X03728Y031363D01*
X037213Y03143D01*
Y03123D01*
X037147Y03143D02*
X037013D01*
Y031397D01*
X037147Y031263D01*
Y03123D01*
X036947Y031397D02*
X036913Y03143D01*
X036847D01*
X036813Y031397D01*
Y031363D01*
X036847Y03133D01*
X036813Y031297D01*
Y031263D01*
X036847Y03123D01*
X036913D01*
X036947Y031263D01*
Y031297D01*
X036913Y03133D01*
X036947Y031363D01*
Y031397D01*
X036913Y03133D02*
X036847D01*
X036747Y031397D02*
X036713Y03143D01*
X036647D01*
X036613Y031397D01*
Y031263D01*
X036647Y03123D01*
X036713D01*
X036747Y031263D01*
Y031397D01*
X036414Y03143D02*
X036547D01*
Y03133D01*
X03648Y031363D01*
X036447D01*
X036414Y03133D01*
Y031263D01*
X036447Y03123D01*
X036513D01*
X036547Y031263D01*
D67*
X03449Y02909D02*
X03929D01*
X03389Y02649D02*
Y03164D01*
X03449D01*
Y02969D02*
Y03164D01*
Y02969D02*
X03589D01*
Y03164D01*
X03619D01*
Y03089D02*
Y03164D01*
Y03089D02*
X03639Y03069D01*
X03629Y03059D02*
X03639Y03069D01*
X03629Y02989D02*
Y03059D01*
Y02989D02*
X03649Y02969D01*
X03729D02*
X03749Y02989D01*
Y03059D01*
X03739Y03069D02*
X03749Y03059D01*
X03739Y03069D02*
X03759Y03089D01*
Y03164D01*
X03789D01*
Y02969D02*
Y03164D01*
Y02969D02*
X03929D01*
Y03164D01*
X03989D01*
X03649Y02969D02*
X03729D01*
X03989Y02649D02*
Y03164D01*
X03929Y02649D02*
X03989D01*
X03929D02*
Y02909D01*
X03449Y02649D02*
Y02909D01*
X03389Y02649D02*
X03449D01*
D68*
X04707Y030814D02*
X04712D01*
Y029914D02*
Y030814D01*
X04707Y029914D02*
X04712D01*
X04642Y030814D02*
X04647D01*
X04642Y029914D02*
Y030814D01*
Y029914D02*
X04647D01*
X04702Y02834D02*
Y02868D01*
X04652Y02834D02*
Y02868D01*
X0234Y02603D02*
Y02637D01*
X0239Y02603D02*
Y02637D01*
X01828Y0314D02*
Y03174D01*
X01878Y0314D02*
Y03174D01*
X01728Y0314D02*
Y03174D01*
X01778Y0314D02*
Y03174D01*
X042999Y027486D02*
Y02772D01*
X043115Y027603D02*
X042882D01*
X029471Y030624D02*
Y03039D01*
X029355Y030507D02*
X029588D01*
D69*
X016132Y041838D02*
Y042074D01*
X01625Y042192D01*
X016722D01*
X01684Y042074D01*
Y041838D01*
X016722Y04172D01*
X01625D01*
X016132Y041838D01*
X01684Y041484D02*
X016132D01*
X01684Y041011D01*
X016132D01*
X01684Y040421D02*
X016486Y040775D01*
X016132Y040421D01*
X016486Y040067D02*
Y039595D01*
X01684Y039358D02*
X016486Y039004D01*
X016132Y039358D01*
Y038414D02*
Y03865D01*
X01625Y038768D01*
X016722D01*
X01684Y03865D01*
Y038414D01*
X016722Y038296D01*
X01625D01*
X016132Y038414D01*
Y037587D02*
Y03806D01*
X016486D01*
Y037824D01*
Y03806D01*
X01684D01*
X016132Y036879D02*
Y037351D01*
X016486D01*
Y037115D01*
Y037351D01*
X01684D01*
D70*
X04244Y030198D02*
D03*
X03003Y027912D02*
D03*
D71*
X036905Y0289D02*
D03*
M02*
