G04*
G04 #@! TF.GenerationSoftware,Altium Limited,Altium Designer,21.0.8 (223)*
G04*
G04 Layer_Color=8388736*
%FSTAX24Y24*%
%MOIN*%
G70*
G04*
G04 #@! TF.SameCoordinates,A57ED762-F1FC-47E5-BACA-E58B220B156E*
G04*
G04*
G04 #@! TF.FilePolarity,Negative*
G04*
G01*
G75*
%ADD18O,0.0880X0.1080*%
%ADD19C,0.0780*%
%ADD20C,0.1580*%
%ADD21R,0.0880X0.1080*%
%ADD22O,0.0749X0.0867*%
%ADD23C,0.1379*%
%ADD24C,0.0671*%
%ADD25R,0.0671X0.0671*%
%ADD26R,0.0780X0.0780*%
%ADD27R,0.1680X0.1080*%
%ADD28R,0.1080X0.1680*%
%ADD29O,0.1458X0.0867*%
%ADD30R,0.0867X0.0867*%
%ADD31C,0.0867*%
%ADD32O,0.1080X0.0730*%
%ADD33R,0.1080X0.0730*%
%ADD34O,0.0946X0.0749*%
%ADD35R,0.0946X0.0749*%
%ADD36C,0.0580*%
D18*
X03689Y02779D02*
D03*
X03589D02*
D03*
D19*
X03301Y02783D02*
D03*
X02353Y03525D02*
D03*
X02253D02*
D03*
X02153D02*
D03*
X02053D02*
D03*
X01853D02*
D03*
X01953D02*
D03*
X03301Y02983D02*
D03*
X04534Y02806D02*
D03*
Y03006D02*
D03*
D20*
X03689Y03009D02*
D03*
D21*
X03789Y02779D02*
D03*
D22*
X0301Y02419D02*
D03*
X0311D02*
D03*
X0321D02*
D03*
X0331D02*
D03*
X0341D02*
D03*
X0351D02*
D03*
X0361D02*
D03*
X0371D02*
D03*
X0381D02*
D03*
X0391D02*
D03*
X0401D02*
D03*
X0411D02*
D03*
X0421D02*
D03*
X0431D02*
D03*
X0441D02*
D03*
X0301Y033942D02*
D03*
X0311D02*
D03*
X0321D02*
D03*
X0331D02*
D03*
X0341D02*
D03*
X0351D02*
D03*
X0361D02*
D03*
X0371D02*
D03*
X0381D02*
D03*
X0391D02*
D03*
X0401D02*
D03*
X0411D02*
D03*
X0421D02*
D03*
X0431D02*
D03*
X0441D02*
D03*
D23*
X04744Y02394D02*
D03*
X01673Y04851D02*
D03*
X04752Y04839D02*
D03*
X01672Y02394D02*
D03*
D24*
X01853Y03306D02*
D03*
X01753D02*
D03*
X01853Y03006D02*
D03*
D25*
X01753D02*
D03*
D26*
Y03525D02*
D03*
D27*
X02091Y02488D02*
D03*
D28*
X01941Y02688D02*
D03*
X02191D02*
D03*
D29*
X01809Y041942D02*
D03*
Y040761D02*
D03*
Y03958D02*
D03*
Y038399D02*
D03*
Y037218D02*
D03*
D30*
X024908Y03131D02*
D03*
D31*
X022152D02*
D03*
D32*
X02493Y02663D02*
D03*
Y02763D02*
D03*
D33*
Y02563D02*
D03*
D34*
X026236Y043646D02*
D03*
Y044646D02*
D03*
Y042646D02*
D03*
Y041646D02*
D03*
Y040646D02*
D03*
Y039646D02*
D03*
Y038646D02*
D03*
X047104Y043648D02*
D03*
Y042648D02*
D03*
Y041648D02*
D03*
Y040648D02*
D03*
D35*
X026236Y045646D02*
D03*
D36*
X02361Y03742D02*
D03*
X03014Y03833D02*
D03*
X0199Y03387D02*
D03*
X029356Y032104D02*
D03*
X04109Y03936D02*
D03*
M02*
